{
	"asset":{
		"generator":"Khronos glTF Blender I/O v4.5.47",
		"version":"2.0"
	},
	"extensionsUsed":[
		"KHR_materials_emissive_strength"
	],
	"scene":0,
	"scenes":[
		{
			"name":"Scene",
			"nodes":[
				9
			]
		}
	],
	"nodes":[
		{
			"name":"chimney_smoke_anchor",
			"translation":[
				-4.449999809265137,
				9.949999809265137,
				3.5999999046325684
			]
		},
		{
			"name":"chimney_smoke_anchor_02",
			"translation":[
				-1.100000023841858,
				8.949999809265137,
				-2.4000000953674316
			]
		},
		{
			"mesh":0,
			"name":"col_chimney-convcolonly"
		},
		{
			"mesh":1,
			"name":"col_main-convcolonly"
		},
		{
			"mesh":2,
			"name":"col_wing-convcolonly"
		},
		{
			"name":"interact_point",
			"translation":[
				5.099999904632568,
				0,
				-2.200000047683716
			]
		},
		{
			"name":"spawn_point",
			"translation":[
				6.300000190734863,
				0,
				-2.200000047683716
			]
		},
		{
			"mesh":3,
			"name":"tavern_body"
		},
		{
			"mesh":4,
			"name":"tavern_sign"
		},
		{
			"children":[
				0,
				1,
				2,
				3,
				4,
				5,
				6,
				7,
				8
			],
			"name":"a1_guild_tavern"
		}
	],
	"materials":[
		{
			"doubleSided":true,
			"name":"kaykit_atlas_mat",
			"pbrMetallicRoughness":{
				"baseColorTexture":{
					"index":0
				},
				"metallicFactor":0
			}
		},
		{
			"doubleSided":true,
			"emissiveFactor":[
				1,
				0.699999988079071,
				0.30000001192092896
			],
			"extensions":{
				"KHR_materials_emissive_strength":{
					"emissiveStrength":1.2000000476837158
				}
			},
			"name":"emissive_window_mat",
			"pbrMetallicRoughness":{
				"baseColorFactor":[
					0.20000000298023224,
					0.10999999940395355,
					0.03999999910593033,
					1
				],
				"metallicFactor":0,
				"roughnessFactor":0
			}
		}
	],
	"meshes":[
		{
			"name":"col_chimney-convcolonly",
			"primitives":[
				{
					"attributes":{
						"POSITION":0,
						"NORMAL":1
					},
					"indices":2
				}
			]
		},
		{
			"name":"col_main-convcolonly",
			"primitives":[
				{
					"attributes":{
						"POSITION":3,
						"NORMAL":4
					},
					"indices":2
				}
			]
		},
		{
			"name":"col_wing-convcolonly",
			"primitives":[
				{
					"attributes":{
						"POSITION":5,
						"NORMAL":6
					},
					"indices":2
				}
			]
		},
		{
			"name":"tavern_body",
			"primitives":[
				{
					"attributes":{
						"POSITION":7,
						"NORMAL":8,
						"TEXCOORD_0":9
					},
					"indices":10,
					"material":0
				},
				{
					"attributes":{
						"POSITION":11,
						"NORMAL":12,
						"TEXCOORD_0":13
					},
					"indices":14,
					"material":1
				}
			]
		},
		{
			"name":"tavern_sign",
			"primitives":[
				{
					"attributes":{
						"POSITION":15,
						"NORMAL":16,
						"TEXCOORD_0":17
					},
					"indices":18,
					"material":0
				}
			]
		}
	],
	"textures":[
		{
			"sampler":0,
			"source":0
		}
	],
	"images":[
		{
			"mimeType":"image/png",
			"name":"hexagons_medieval",
			"uri":"hexagons_medieval.png"
		}
	],
	"accessors":[
		{
			"bufferView":0,
			"componentType":5126,
			"count":24,
			"max":[
				-4,
				9.399999618530273,
				4.25
			],
			"min":[
				-4.949999809265137,
				0,
				2.9499998092651367
			],
			"type":"VEC3"
		},
		{
			"bufferView":1,
			"componentType":5126,
			"count":24,
			"type":"VEC3"
		},
		{
			"bufferView":2,
			"componentType":5123,
			"count":36,
			"type":"SCALAR"
		},
		{
			"bufferView":3,
			"componentType":5126,
			"count":24,
			"max":[
				4.300000190734863,
				6,
				4.800000190734863
			],
			"min":[
				-4.09999942779541,
				0,
				-0.5999999046325684
			],
			"type":"VEC3"
		},
		{
			"bufferView":4,
			"componentType":5126,
			"count":24,
			"type":"VEC3"
		},
		{
			"bufferView":5,
			"componentType":5126,
			"count":24,
			"max":[
				4.650000095367432,
				5.199999809265137,
				-0.5
			],
			"min":[
				-1.5999999046325684,
				0,
				-4
			],
			"type":"VEC3"
		},
		{
			"bufferView":6,
			"componentType":5126,
			"count":24,
			"type":"VEC3"
		},
		{
			"bufferView":7,
			"componentType":5126,
			"count":7992,
			"max":[
				5.415079116821289,
				9.949999809265137,
				5.471077919006348
			],
			"min":[
				-5,
				0,
				-4.557926654815674
			],
			"type":"VEC3"
		},
		{
			"bufferView":8,
			"componentType":5126,
			"count":7992,
			"type":"VEC3"
		},
		{
			"bufferView":9,
			"componentType":5126,
			"count":7992,
			"type":"VEC2"
		},
		{
			"bufferView":10,
			"componentType":5123,
			"count":12000,
			"type":"SCALAR"
		},
		{
			"bufferView":11,
			"componentType":5126,
			"count":720,
			"max":[
				5.180000305175781,
				7.839999675750732,
				4.75
			],
			"min":[
				-4.050000190734863,
				1.350000023841858,
				-4
			],
			"type":"VEC3"
		},
		{
			"bufferView":12,
			"componentType":5126,
			"count":720,
			"type":"VEC3"
		},
		{
			"bufferView":13,
			"componentType":5126,
			"count":720,
			"type":"VEC2"
		},
		{
			"bufferView":14,
			"componentType":5123,
			"count":1260,
			"type":"SCALAR"
		},
		{
			"bufferView":15,
			"componentType":5126,
			"count":276,
			"max":[
				5.099999904632568,
				3.180000066757202,
				0.4349999725818634
			],
			"min":[
				4.053995609283447,
				2.200000047683716,
				0.3100000023841858
			],
			"type":"VEC3"
		},
		{
			"bufferView":16,
			"componentType":5126,
			"count":276,
			"type":"VEC3"
		},
		{
			"bufferView":17,
			"componentType":5126,
			"count":276,
			"type":"VEC2"
		},
		{
			"bufferView":18,
			"componentType":5123,
			"count":444,
			"type":"SCALAR"
		}
	],
	"bufferViews":[
		{
			"buffer":0,
			"byteLength":288,
			"byteOffset":0,
			"target":34962
		},
		{
			"buffer":0,
			"byteLength":288,
			"byteOffset":288,
			"target":34962
		},
		{
			"buffer":0,
			"byteLength":72,
			"byteOffset":576,
			"target":34963
		},
		{
			"buffer":0,
			"byteLength":288,
			"byteOffset":648,
			"target":34962
		},
		{
			"buffer":0,
			"byteLength":288,
			"byteOffset":936,
			"target":34962
		},
		{
			"buffer":0,
			"byteLength":288,
			"byteOffset":1224,
			"target":34962
		},
		{
			"buffer":0,
			"byteLength":288,
			"byteOffset":1512,
			"target":34962
		},
		{
			"buffer":0,
			"byteLength":95904,
			"byteOffset":1800,
			"target":34962
		},
		{
			"buffer":0,
			"byteLength":95904,
			"byteOffset":97704,
			"target":34962
		},
		{
			"buffer":0,
			"byteLength":63936,
			"byteOffset":193608,
			"target":34962
		},
		{
			"buffer":0,
			"byteLength":24000,
			"byteOffset":257544,
			"target":34963
		},
		{
			"buffer":0,
			"byteLength":8640,
			"byteOffset":281544,
			"target":34962
		},
		{
			"buffer":0,
			"byteLength":8640,
			"byteOffset":290184,
			"target":34962
		},
		{
			"buffer":0,
			"byteLength":5760,
			"byteOffset":298824,
			"target":34962
		},
		{
			"buffer":0,
			"byteLength":2520,
			"byteOffset":304584,
			"target":34963
		},
		{
			"buffer":0,
			"byteLength":3312,
			"byteOffset":307104,
			"target":34962
		},
		{
			"buffer":0,
			"byteLength":3312,
			"byteOffset":310416,
			"target":34962
		},
		{
			"buffer":0,
			"byteLength":2208,
			"byteOffset":313728,
			"target":34962
		},
		{
			"buffer":0,
			"byteLength":888,
			"byteOffset":315936,
			"target":34963
		}
	],
	"samplers":[
		{
			"magFilter":9728,
			"minFilter":9984
		}
	],
	"buffers":[
		{
			"byteLength":316824,
			"uri":"a1_guild_tavern.bin"
		}
	]
}
