{
	"asset":{
		"generator":"Khronos glTF Blender I/O v4.5.47",
		"version":"2.0"
	},
	"extensionsUsed":[
		"KHR_materials_emissive_strength"
	],
	"scene":0,
	"scenes":[
		{
			"name":"Scene",
			"nodes":[
				1
			]
		}
	],
	"nodes":[
		{
			"mesh":0,
			"name":"tavern_mini"
		},
		{
			"children":[
				0
			],
			"name":"a2_guild_tavern_mini"
		}
	],
	"materials":[
		{
			"doubleSided":true,
			"name":"kaykit_atlas_mat",
			"pbrMetallicRoughness":{
				"baseColorTexture":{
					"index":0
				},
				"metallicFactor":0
			}
		},
		{
			"doubleSided":true,
			"emissiveFactor":[
				1,
				0.699999988079071,
				0.30000001192092896
			],
			"extensions":{
				"KHR_materials_emissive_strength":{
					"emissiveStrength":1.2000000476837158
				}
			},
			"name":"emissive_window_mat",
			"pbrMetallicRoughness":{
				"baseColorFactor":[
					0.20000000298023224,
					0.10999999940395355,
					0.03999999910593033,
					1
				],
				"metallicFactor":0,
				"roughnessFactor":0
			}
		}
	],
	"meshes":[
		{
			"name":"tavern_mini",
			"primitives":[
				{
					"attributes":{
						"POSITION":0,
						"NORMAL":1,
						"TEXCOORD_0":2
					},
					"indices":3,
					"material":0
				},
				{
					"attributes":{
						"POSITION":4,
						"NORMAL":5,
						"TEXCOORD_0":6
					},
					"indices":7,
					"material":1
				}
			]
		}
	],
	"textures":[
		{
			"sampler":0,
			"source":0
		}
	],
	"images":[
		{
			"mimeType":"image/png",
			"name":"hexagons_medieval",
			"uri":"hexagons_medieval.png"
		}
	],
	"accessors":[
		{
			"bufferView":0,
			"componentType":5126,
			"count":1230,
			"max":[
				0.6499999761581421,
				1.2934999465942383,
				0.5945692658424377
			],
			"min":[
				-0.6499999761581421,
				0,
				-0.6889290809631348
			],
			"type":"VEC3"
		},
		{
			"bufferView":1,
			"componentType":5126,
			"count":1230,
			"type":"VEC3"
		},
		{
			"bufferView":2,
			"componentType":5126,
			"count":1230,
			"type":"VEC2"
		},
		{
			"bufferView":3,
			"componentType":5123,
			"count":1836,
			"type":"SCALAR"
		},
		{
			"bufferView":4,
			"componentType":5126,
			"count":648,
			"max":[
				0.6044999957084656,
				1.0191999673843384,
				0.5174999833106995
			],
			"min":[
				-0.4302999973297119,
				0.17550000548362732,
				-0.4347500205039978
			],
			"type":"VEC3"
		},
		{
			"bufferView":5,
			"componentType":5126,
			"count":648,
			"type":"VEC3"
		},
		{
			"bufferView":6,
			"componentType":5126,
			"count":648,
			"type":"VEC2"
		},
		{
			"bufferView":7,
			"componentType":5123,
			"count":1152,
			"type":"SCALAR"
		}
	],
	"bufferViews":[
		{
			"buffer":0,
			"byteLength":14760,
			"byteOffset":0,
			"target":34962
		},
		{
			"buffer":0,
			"byteLength":14760,
			"byteOffset":14760,
			"target":34962
		},
		{
			"buffer":0,
			"byteLength":9840,
			"byteOffset":29520,
			"target":34962
		},
		{
			"buffer":0,
			"byteLength":3672,
			"byteOffset":39360,
			"target":34963
		},
		{
			"buffer":0,
			"byteLength":7776,
			"byteOffset":43032,
			"target":34962
		},
		{
			"buffer":0,
			"byteLength":7776,
			"byteOffset":50808,
			"target":34962
		},
		{
			"buffer":0,
			"byteLength":5184,
			"byteOffset":58584,
			"target":34962
		},
		{
			"buffer":0,
			"byteLength":2304,
			"byteOffset":63768,
			"target":34963
		}
	],
	"samplers":[
		{
			"magFilter":9728,
			"minFilter":9984
		}
	],
	"buffers":[
		{
			"byteLength":66072,
			"uri":"a2_guild_tavern_mini.bin"
		}
	]
}
