{
	"asset":{
		"generator":"Khronos glTF Blender I/O v4.5.47",
		"version":"2.0"
	},
	"scene":0,
	"scenes":[
		{
			"name":"Scene",
			"nodes":[
				4
			]
		}
	],
	"nodes":[
		{
			"mesh":0,
			"name":"bridge"
		},
		{
			"mesh":1,
			"name":"bridge_deck_col-colonly"
		},
		{
			"mesh":2,
			"name":"bridge_rail_n-convcolonly"
		},
		{
			"mesh":3,
			"name":"bridge_rail_s-convcolonly"
		},
		{
			"children":[
				0,
				1,
				2,
				3
			],
			"name":"a6_bridge"
		}
	],
	"materials":[
		{
			"doubleSided":true,
			"name":"kaykit_atlas_mat",
			"pbrMetallicRoughness":{
				"baseColorTexture":{
					"index":0
				},
				"metallicFactor":0
			}
		}
	],
	"meshes":[
		{
			"name":"bridge",
			"primitives":[
				{
					"attributes":{
						"POSITION":0,
						"NORMAL":1,
						"TEXCOORD_0":2
					},
					"indices":3,
					"material":0
				}
			]
		},
		{
			"name":"bridge_deck_col-colonly",
			"primitives":[
				{
					"attributes":{
						"POSITION":4,
						"NORMAL":5
					},
					"indices":6
				}
			]
		},
		{
			"name":"bridge_rail_n-convcolonly",
			"primitives":[
				{
					"attributes":{
						"POSITION":7,
						"NORMAL":8
					},
					"indices":9
				}
			]
		},
		{
			"name":"bridge_rail_s-convcolonly",
			"primitives":[
				{
					"attributes":{
						"POSITION":10,
						"NORMAL":11
					},
					"indices":9
				}
			]
		}
	],
	"textures":[
		{
			"sampler":0,
			"source":0
		}
	],
	"images":[
		{
			"mimeType":"image/png",
			"name":"hexagons_medieval",
			"uri":"hexagons_medieval.png"
		}
	],
	"accessors":[
		{
			"bufferView":0,
			"componentType":5126,
			"count":1680,
			"max":[
				3.8499999046325684,
				1.3099045753479004,
				1.5
			],
			"min":[
				-3.8499999046325684,
				-0.8999999761581421,
				-1.5
			],
			"type":"VEC3"
		},
		{
			"bufferView":1,
			"componentType":5126,
			"count":1680,
			"type":"VEC3"
		},
		{
			"bufferView":2,
			"componentType":5126,
			"count":1680,
			"type":"VEC2"
		},
		{
			"bufferView":3,
			"componentType":5123,
			"count":2520,
			"type":"SCALAR"
		},
		{
			"bufferView":4,
			"componentType":5126,
			"count":40,
			"max":[
				3.5,
				0.3499999940395355,
				1.2999999523162842
			],
			"min":[
				-3.5,
				0,
				-1.2999999523162842
			],
			"type":"VEC3"
		},
		{
			"bufferView":5,
			"componentType":5126,
			"count":40,
			"type":"VEC3"
		},
		{
			"bufferView":6,
			"componentType":5123,
			"count":60,
			"type":"SCALAR"
		},
		{
			"bufferView":7,
			"componentType":5126,
			"count":24,
			"max":[
				3.0999999046325684,
				1.2999999523162842,
				-1.2200000286102295
			],
			"min":[
				-3.0999999046325684,
				-0.10000002384185791,
				-1.3999998569488525
			],
			"type":"VEC3"
		},
		{
			"bufferView":8,
			"componentType":5126,
			"count":24,
			"type":"VEC3"
		},
		{
			"bufferView":9,
			"componentType":5123,
			"count":36,
			"type":"SCALAR"
		},
		{
			"bufferView":10,
			"componentType":5126,
			"count":24,
			"max":[
				3.0999999046325684,
				1.2999999523162842,
				1.3999998569488525
			],
			"min":[
				-3.0999999046325684,
				-0.10000002384185791,
				1.2200000286102295
			],
			"type":"VEC3"
		},
		{
			"bufferView":11,
			"componentType":5126,
			"count":24,
			"type":"VEC3"
		}
	],
	"bufferViews":[
		{
			"buffer":0,
			"byteLength":20160,
			"byteOffset":0,
			"target":34962
		},
		{
			"buffer":0,
			"byteLength":20160,
			"byteOffset":20160,
			"target":34962
		},
		{
			"buffer":0,
			"byteLength":13440,
			"byteOffset":40320,
			"target":34962
		},
		{
			"buffer":0,
			"byteLength":5040,
			"byteOffset":53760,
			"target":34963
		},
		{
			"buffer":0,
			"byteLength":480,
			"byteOffset":58800,
			"target":34962
		},
		{
			"buffer":0,
			"byteLength":480,
			"byteOffset":59280,
			"target":34962
		},
		{
			"buffer":0,
			"byteLength":120,
			"byteOffset":59760,
			"target":34963
		},
		{
			"buffer":0,
			"byteLength":288,
			"byteOffset":59880,
			"target":34962
		},
		{
			"buffer":0,
			"byteLength":288,
			"byteOffset":60168,
			"target":34962
		},
		{
			"buffer":0,
			"byteLength":72,
			"byteOffset":60456,
			"target":34963
		},
		{
			"buffer":0,
			"byteLength":288,
			"byteOffset":60528,
			"target":34962
		},
		{
			"buffer":0,
			"byteLength":288,
			"byteOffset":60816,
			"target":34962
		}
	],
	"samplers":[
		{
			"magFilter":9728,
			"minFilter":9984
		}
	],
	"buffers":[
		{
			"byteLength":61104,
			"uri":"a6_bridge.bin"
		}
	]
}
