{
	"asset":{
		"generator":"Khronos glTF Blender I/O v4.5.47",
		"version":"2.0"
	},
	"scene":0,
	"scenes":[
		{
			"name":"Scene",
			"nodes":[
				4
			]
		}
	],
	"nodes":[
		{
			"mesh":0,
			"name":"terrain"
		},
		{
			"mesh":1,
			"name":"terrain_col-colonly"
		},
		{
			"mesh":2,
			"name":"terrain_paths"
		},
		{
			"mesh":3,
			"name":"terrain_water"
		},
		{
			"children":[
				0,
				1,
				2,
				3
			],
			"name":"a6_exterior_terrain"
		}
	],
	"materials":[
		{
			"doubleSided":true,
			"name":"kaykit_atlas_mat",
			"pbrMetallicRoughness":{
				"baseColorTexture":{
					"index":0
				},
				"metallicFactor":0
			}
		}
	],
	"meshes":[
		{
			"name":"terrain",
			"primitives":[
				{
					"attributes":{
						"POSITION":0,
						"NORMAL":1,
						"TEXCOORD_0":2
					},
					"indices":3,
					"material":0
				}
			]
		},
		{
			"name":"terrain_col-colonly",
			"primitives":[
				{
					"attributes":{
						"POSITION":4,
						"NORMAL":5,
						"TEXCOORD_0":6
					},
					"indices":3,
					"material":0
				}
			]
		},
		{
			"name":"terrain_paths",
			"primitives":[
				{
					"attributes":{
						"POSITION":7,
						"NORMAL":8,
						"TEXCOORD_0":9
					},
					"indices":10,
					"material":0
				}
			]
		},
		{
			"name":"terrain_water",
			"primitives":[
				{
					"attributes":{
						"POSITION":11,
						"NORMAL":12,
						"TEXCOORD_0":13
					},
					"indices":14,
					"material":0
				}
			]
		}
	],
	"textures":[
		{
			"sampler":0,
			"source":0
		}
	],
	"images":[
		{
			"mimeType":"image/png",
			"name":"hexagons_medieval",
			"uri":"hexagons_medieval.png"
		}
	],
	"accessors":[
		{
			"bufferView":0,
			"componentType":5126,
			"count":30970,
			"max":[
				84,
				0,
				82
			],
			"min":[
				-86,
				-3.9000000953674316,
				-62
			],
			"type":"VEC3"
		},
		{
			"bufferView":1,
			"componentType":5126,
			"count":30970,
			"type":"VEC3"
		},
		{
			"bufferView":2,
			"componentType":5126,
			"count":30970,
			"type":"VEC2"
		},
		{
			"bufferView":3,
			"componentType":5123,
			"count":47952,
			"type":"SCALAR"
		},
		{
			"bufferView":4,
			"componentType":5126,
			"count":30970,
			"max":[
				84,
				0,
				82
			],
			"min":[
				-86,
				-3.9000000953674316,
				-62
			],
			"type":"VEC3"
		},
		{
			"bufferView":5,
			"componentType":5126,
			"count":30970,
			"type":"VEC3"
		},
		{
			"bufferView":6,
			"componentType":5126,
			"count":30970,
			"type":"VEC2"
		},
		{
			"bufferView":7,
			"componentType":5126,
			"count":125,
			"max":[
				24.5,
				0.11999999731779099,
				15
			],
			"min":[
				-20.9583683013916,
				-2.950000047683716,
				1
			],
			"type":"VEC3"
		},
		{
			"bufferView":8,
			"componentType":5126,
			"count":125,
			"type":"VEC3"
		},
		{
			"bufferView":9,
			"componentType":5126,
			"count":125,
			"type":"VEC2"
		},
		{
			"bufferView":10,
			"componentType":5123,
			"count":312,
			"type":"SCALAR"
		},
		{
			"bufferView":11,
			"componentType":5126,
			"count":146,
			"max":[
				9.298954963684082,
				-3.25,
				82
			],
			"min":[
				0.7010454535484314,
				-3.25,
				-62
			],
			"type":"VEC3"
		},
		{
			"bufferView":12,
			"componentType":5126,
			"count":146,
			"type":"VEC3"
		},
		{
			"bufferView":13,
			"componentType":5126,
			"count":146,
			"type":"VEC2"
		},
		{
			"bufferView":14,
			"componentType":5123,
			"count":432,
			"type":"SCALAR"
		}
	],
	"bufferViews":[
		{
			"buffer":0,
			"byteLength":371640,
			"byteOffset":0,
			"target":34962
		},
		{
			"buffer":0,
			"byteLength":371640,
			"byteOffset":371640,
			"target":34962
		},
		{
			"buffer":0,
			"byteLength":247760,
			"byteOffset":743280,
			"target":34962
		},
		{
			"buffer":0,
			"byteLength":95904,
			"byteOffset":991040,
			"target":34963
		},
		{
			"buffer":0,
			"byteLength":371640,
			"byteOffset":1086944,
			"target":34962
		},
		{
			"buffer":0,
			"byteLength":371640,
			"byteOffset":1458584,
			"target":34962
		},
		{
			"buffer":0,
			"byteLength":247760,
			"byteOffset":1830224,
			"target":34962
		},
		{
			"buffer":0,
			"byteLength":1500,
			"byteOffset":2077984,
			"target":34962
		},
		{
			"buffer":0,
			"byteLength":1500,
			"byteOffset":2079484,
			"target":34962
		},
		{
			"buffer":0,
			"byteLength":1000,
			"byteOffset":2080984,
			"target":34962
		},
		{
			"buffer":0,
			"byteLength":624,
			"byteOffset":2081984,
			"target":34963
		},
		{
			"buffer":0,
			"byteLength":1752,
			"byteOffset":2082608,
			"target":34962
		},
		{
			"buffer":0,
			"byteLength":1752,
			"byteOffset":2084360,
			"target":34962
		},
		{
			"buffer":0,
			"byteLength":1168,
			"byteOffset":2086112,
			"target":34962
		},
		{
			"buffer":0,
			"byteLength":864,
			"byteOffset":2087280,
			"target":34963
		}
	],
	"samplers":[
		{
			"magFilter":9728,
			"minFilter":9984
		}
	],
	"buffers":[
		{
			"byteLength":2088144,
			"uri":"a6_exterior_terrain.bin"
		}
	]
}
