{
	"asset":{
		"generator":"Khronos glTF Blender I/O v4.5.47",
		"version":"2.0"
	},
	"scene":0,
	"scenes":[
		{
			"name":"Scene",
			"nodes":[
				8
			]
		}
	],
	"nodes":[
		{
			"mesh":0,
			"name":"back_shelf"
		},
		{
			"mesh":1,
			"name":"island_col-colonly"
		},
		{
			"mesh":2,
			"name":"keg_beer"
		},
		{
			"mesh":3,
			"name":"keg_mead"
		},
		{
			"mesh":4,
			"name":"keg_rack"
		},
		{
			"name":"tap_beer",
			"translation":[
				0.2552628219127655,
				0.30000001192092896,
				-1.4476673603057861
			]
		},
		{
			"name":"tap_mead",
			"translation":[
				-0.2552628219127655,
				0.30000001192092896,
				-1.4476673603057861
			]
		},
		{
			"name":"work_point",
			"translation":[
				0,
				0,
				-1.7999999523162842
			]
		},
		{
			"children":[
				0,
				1,
				2,
				3,
				4,
				5,
				6,
				7
			],
			"name":"b12_back_bar"
		}
	],
	"materials":[
		{
			"doubleSided":true,
			"name":"kaykit_atlas_mat",
			"pbrMetallicRoughness":{
				"baseColorTexture":{
					"index":0
				},
				"metallicFactor":0
			}
		}
	],
	"meshes":[
		{
			"name":"back_shelf",
			"primitives":[
				{
					"attributes":{
						"POSITION":0,
						"NORMAL":1,
						"TEXCOORD_0":2
					},
					"indices":3,
					"material":0
				}
			]
		},
		{
			"name":"island_col-colonly",
			"primitives":[
				{
					"attributes":{
						"POSITION":4,
						"NORMAL":5
					},
					"indices":6
				}
			]
		},
		{
			"name":"keg_beer",
			"primitives":[
				{
					"attributes":{
						"POSITION":7,
						"NORMAL":8,
						"TEXCOORD_0":9
					},
					"indices":10,
					"material":0
				}
			]
		},
		{
			"name":"keg_mead",
			"primitives":[
				{
					"attributes":{
						"POSITION":11,
						"NORMAL":12,
						"TEXCOORD_0":13
					},
					"indices":14,
					"material":0
				}
			]
		},
		{
			"name":"keg_rack",
			"primitives":[
				{
					"attributes":{
						"POSITION":15,
						"NORMAL":16,
						"TEXCOORD_0":17
					},
					"indices":18,
					"material":0
				}
			]
		}
	],
	"textures":[
		{
			"sampler":0,
			"source":0
		}
	],
	"images":[
		{
			"mimeType":"image/png",
			"name":"hexagons_medieval",
			"uri":"hexagons_medieval.png"
		}
	],
	"accessors":[
		{
			"bufferView":0,
			"componentType":5126,
			"count":4416,
			"max":[
				1.255405068397522,
				1.290136694908142,
				1.255405068397522
			],
			"min":[
				-1.255405068397522,
				0,
				-1.225981593132019
			],
			"type":"VEC3"
		},
		{
			"bufferView":1,
			"componentType":5126,
			"count":4416,
			"type":"VEC3"
		},
		{
			"bufferView":2,
			"componentType":5126,
			"count":4416,
			"type":"VEC2"
		},
		{
			"bufferView":3,
			"componentType":5123,
			"count":6822,
			"type":"SCALAR"
		},
		{
			"bufferView":4,
			"componentType":5126,
			"count":384,
			"max":[
				1.225981593132019,
				1,
				1.225981593132019
			],
			"min":[
				-1.225981593132019,
				0,
				-1.225981593132019
			],
			"type":"VEC3"
		},
		{
			"bufferView":5,
			"componentType":5126,
			"count":384,
			"type":"VEC3"
		},
		{
			"bufferView":6,
			"componentType":5123,
			"count":576,
			"type":"SCALAR"
		},
		{
			"bufferView":7,
			"componentType":5126,
			"count":208,
			"max":[
				0.38305696845054626,
				0.491678923368454,
				-0.9804393649101257
			],
			"min":[
				0.040644571185112,
				0.16832107305526733,
				-1.4717047214508057
			],
			"type":"VEC3"
		},
		{
			"bufferView":8,
			"componentType":5126,
			"count":208,
			"type":"VEC3"
		},
		{
			"bufferView":9,
			"componentType":5126,
			"count":208,
			"type":"VEC2"
		},
		{
			"bufferView":10,
			"componentType":5123,
			"count":336,
			"type":"SCALAR"
		},
		{
			"bufferView":11,
			"componentType":5126,
			"count":208,
			"max":[
				-0.040644571185112,
				0.491678923368454,
				-0.9804393649101257
			],
			"min":[
				-0.38305696845054626,
				0.16832107305526733,
				-1.4717047214508057
			],
			"type":"VEC3"
		},
		{
			"bufferView":12,
			"componentType":5126,
			"count":208,
			"type":"VEC3"
		},
		{
			"bufferView":13,
			"componentType":5126,
			"count":208,
			"type":"VEC2"
		},
		{
			"bufferView":14,
			"componentType":5123,
			"count":336,
			"type":"SCALAR"
		},
		{
			"bufferView":15,
			"componentType":5126,
			"count":120,
			"max":[
				0.42992350459098816,
				0.25999999046325684,
				-0.9387788772583008
			],
			"min":[
				-0.42992350459098816,
				0.059999994933605194,
				-1.5500000715255737
			],
			"type":"VEC3"
		},
		{
			"bufferView":16,
			"componentType":5126,
			"count":120,
			"type":"VEC3"
		},
		{
			"bufferView":17,
			"componentType":5126,
			"count":120,
			"type":"VEC2"
		},
		{
			"bufferView":18,
			"componentType":5123,
			"count":180,
			"type":"SCALAR"
		}
	],
	"bufferViews":[
		{
			"buffer":0,
			"byteLength":52992,
			"byteOffset":0,
			"target":34962
		},
		{
			"buffer":0,
			"byteLength":52992,
			"byteOffset":52992,
			"target":34962
		},
		{
			"buffer":0,
			"byteLength":35328,
			"byteOffset":105984,
			"target":34962
		},
		{
			"buffer":0,
			"byteLength":13644,
			"byteOffset":141312,
			"target":34963
		},
		{
			"buffer":0,
			"byteLength":4608,
			"byteOffset":154956,
			"target":34962
		},
		{
			"buffer":0,
			"byteLength":4608,
			"byteOffset":159564,
			"target":34962
		},
		{
			"buffer":0,
			"byteLength":1152,
			"byteOffset":164172,
			"target":34963
		},
		{
			"buffer":0,
			"byteLength":2496,
			"byteOffset":165324,
			"target":34962
		},
		{
			"buffer":0,
			"byteLength":2496,
			"byteOffset":167820,
			"target":34962
		},
		{
			"buffer":0,
			"byteLength":1664,
			"byteOffset":170316,
			"target":34962
		},
		{
			"buffer":0,
			"byteLength":672,
			"byteOffset":171980,
			"target":34963
		},
		{
			"buffer":0,
			"byteLength":2496,
			"byteOffset":172652,
			"target":34962
		},
		{
			"buffer":0,
			"byteLength":2496,
			"byteOffset":175148,
			"target":34962
		},
		{
			"buffer":0,
			"byteLength":1664,
			"byteOffset":177644,
			"target":34962
		},
		{
			"buffer":0,
			"byteLength":672,
			"byteOffset":179308,
			"target":34963
		},
		{
			"buffer":0,
			"byteLength":1440,
			"byteOffset":179980,
			"target":34962
		},
		{
			"buffer":0,
			"byteLength":1440,
			"byteOffset":181420,
			"target":34962
		},
		{
			"buffer":0,
			"byteLength":960,
			"byteOffset":182860,
			"target":34962
		},
		{
			"buffer":0,
			"byteLength":360,
			"byteOffset":183820,
			"target":34963
		}
	],
	"samplers":[
		{
			"magFilter":9728,
			"minFilter":9984
		}
	],
	"buffers":[
		{
			"byteLength":184180,
			"uri":"b12_back_bar.bin"
		}
	]
}
