{
	"asset":{
		"generator":"Khronos glTF Blender I/O v4.5.47",
		"version":"2.0"
	},
	"extensionsUsed":[
		"KHR_materials_emissive_strength"
	],
	"scene":0,
	"scenes":[
		{
			"name":"Scene",
			"nodes":[
				29
			]
		}
	],
	"nodes":[
		{
			"mesh":0,
			"name":"andirons"
		},
		{
			"mesh":1,
			"name":"ember_bed"
		},
		{
			"name":"fire_point",
			"translation":[
				0,
				0.30000001192092896,
				0.6200000047683716
			]
		},
		{
			"mesh":2,
			"name":"hearth_apron-convcolonly"
		},
		{
			"mesh":3,
			"name":"hearth_body-convcolonly"
		},
		{
			"mesh":4,
			"name":"hearth_runes"
		},
		{
			"mesh":5,
			"name":"hearth_seat-convcolonly"
		},
		{
			"mesh":6,
			"name":"hearth_stone"
		},
		{
			"name":"interact_point",
			"translation":[
				0,
				0,
				1.899999976158142
			]
		},
		{
			"name":"log_slot_1",
			"translation":[
				0,
				0.375,
				0.6299999952316284
			]
		},
		{
			"name":"log_slot_2",
			"translation":[
				0,
				0.375,
				0.5
			]
		},
		{
			"name":"log_slot_3",
			"translation":[
				0,
				0.375,
				0.7599999904632568
			]
		},
		{
			"name":"log_slot_4",
			"translation":[
				0,
				0.48500001430511475,
				0.5649999976158142
			]
		},
		{
			"name":"log_slot_5",
			"translation":[
				0,
				0.48500001430511475,
				0.6949999928474426
			]
		},
		{
			"mesh":7,
			"name":"mantel"
		},
		{
			"mesh":8,
			"name":"mantel_props"
		},
		{
			"name":"onibi_point",
			"translation":[
				0,
				0.550000011920929,
				0.6200000047683716
			]
		},
		{
			"name":"sit_point",
			"rotation":[
				0,
				0.2164396345615387,
				0,
				0.976296067237854
			],
			"translation":[
				-1.6200000047683716,
				0.44999998807907104,
				0.33000001311302185
			]
		},
		{
			"name":"smoke_point",
			"translation":[
				0,
				4.400000095367432,
				0.30000001192092896
			]
		},
		{
			"name":"store_slot_01",
			"rotation":[
				0,
				0.7071068286895752,
				0,
				0.7071068286895752
			],
			"translation":[
				-1.8550000190734863,
				0.11500000208616257,
				0.3799999952316284
			]
		},
		{
			"name":"store_slot_02",
			"rotation":[
				0,
				0.7071068286895752,
				0,
				0.7071068286895752
			],
			"translation":[
				-1.7400000095367432,
				0.11500000208616257,
				0.3799999952316284
			]
		},
		{
			"name":"store_slot_03",
			"rotation":[
				0,
				0.7071068286895752,
				0,
				0.7071068286895752
			],
			"translation":[
				-1.625,
				0.11500000208616257,
				0.3799999952316284
			]
		},
		{
			"name":"store_slot_04",
			"rotation":[
				0,
				0.7071068286895752,
				0,
				0.7071068286895752
			],
			"translation":[
				-1.5099999904632568,
				0.11500000208616257,
				0.3799999952316284
			]
		},
		{
			"name":"store_slot_05",
			"rotation":[
				0,
				0.7071068286895752,
				0,
				0.7071068286895752
			],
			"translation":[
				-1.3949999809265137,
				0.11500000208616257,
				0.3799999952316284
			]
		},
		{
			"name":"store_slot_06",
			"rotation":[
				0,
				0.7071068286895752,
				0,
				0.7071068286895752
			],
			"translation":[
				-1.8550000190734863,
				0.2199999988079071,
				0.3799999952316284
			]
		},
		{
			"name":"store_slot_07",
			"rotation":[
				0,
				0.7071068286895752,
				0,
				0.7071068286895752
			],
			"translation":[
				-1.7400000095367432,
				0.2199999988079071,
				0.3799999952316284
			]
		},
		{
			"name":"store_slot_08",
			"rotation":[
				0,
				0.7071068286895752,
				0,
				0.7071068286895752
			],
			"translation":[
				-1.625,
				0.2199999988079071,
				0.3799999952316284
			]
		},
		{
			"name":"store_slot_09",
			"rotation":[
				0,
				0.7071068286895752,
				0,
				0.7071068286895752
			],
			"translation":[
				-1.5099999904632568,
				0.2199999988079071,
				0.3799999952316284
			]
		},
		{
			"name":"store_slot_10",
			"rotation":[
				0,
				0.7071068286895752,
				0,
				0.7071068286895752
			],
			"translation":[
				-1.3949999809265137,
				0.2199999988079071,
				0.3799999952316284
			]
		},
		{
			"children":[
				0,
				1,
				2,
				3,
				4,
				5,
				6,
				7,
				8,
				9,
				10,
				11,
				12,
				13,
				14,
				15,
				16,
				17,
				18,
				19,
				20,
				21,
				22,
				23,
				24,
				25,
				26,
				27,
				28
			],
			"name":"b1_hearth"
		}
	],
	"materials":[
		{
			"doubleSided":true,
			"name":"kaykit_atlas_mat",
			"pbrMetallicRoughness":{
				"baseColorTexture":{
					"index":0
				},
				"metallicFactor":0
			}
		},
		{
			"doubleSided":true,
			"emissiveFactor":[
				1,
				0.41600000858306885,
				0.12200000137090683
			],
			"extensions":{
				"KHR_materials_emissive_strength":{
					"emissiveStrength":1.2999999523162842
				}
			},
			"name":"emissive_embers_mat",
			"pbrMetallicRoughness":{
				"baseColorFactor":[
					0.2199999988079071,
					0.05000000074505806,
					0.009999999776482582,
					1
				],
				"metallicFactor":0,
				"roughnessFactor":0
			}
		},
		{
			"doubleSided":true,
			"emissiveFactor":[
				0.28132117086329517,
				1,
				0.8929384518922642
			],
			"extensions":{
				"KHR_materials_emissive_strength":{
					"emissiveStrength":1.2292000084400172
				}
			},
			"name":"emissive_prior_teal_mat",
			"pbrMetallicRoughness":{
				"baseColorFactor":[
					0.03999999910593033,
					0.1599999964237213,
					0.14000000059604645,
					1
				],
				"metallicFactor":0,
				"roughnessFactor":0
			}
		},
		{
			"doubleSided":true,
			"emissiveFactor":[
				1,
				0.7608000040054321,
				0.4000000059604645
			],
			"extensions":{
				"KHR_materials_emissive_strength":{
					"emissiveStrength":1.2000000476837158
				}
			},
			"name":"emissive_candle_mat",
			"pbrMetallicRoughness":{
				"baseColorFactor":[
					0.20000000298023224,
					0.10999999940395355,
					0.03999999910593033,
					1
				],
				"metallicFactor":0,
				"roughnessFactor":0
			}
		}
	],
	"meshes":[
		{
			"name":"andirons",
			"primitives":[
				{
					"attributes":{
						"POSITION":0,
						"NORMAL":1,
						"TEXCOORD_0":2
					},
					"indices":3,
					"material":0
				}
			]
		},
		{
			"name":"ember_bed",
			"primitives":[
				{
					"attributes":{
						"POSITION":4,
						"NORMAL":5,
						"TEXCOORD_0":6
					},
					"indices":7,
					"material":1
				}
			]
		},
		{
			"name":"hearth_apron-convcolonly",
			"primitives":[
				{
					"attributes":{
						"POSITION":8,
						"NORMAL":9
					},
					"indices":10
				}
			]
		},
		{
			"name":"hearth_body-convcolonly",
			"primitives":[
				{
					"attributes":{
						"POSITION":11,
						"NORMAL":12
					},
					"indices":10
				}
			]
		},
		{
			"name":"hearth_runes",
			"primitives":[
				{
					"attributes":{
						"POSITION":13,
						"NORMAL":14,
						"TEXCOORD_0":15
					},
					"indices":16,
					"material":2
				}
			]
		},
		{
			"name":"hearth_seat-convcolonly",
			"primitives":[
				{
					"attributes":{
						"POSITION":17,
						"NORMAL":18
					},
					"indices":10
				}
			]
		},
		{
			"name":"hearth_stone",
			"primitives":[
				{
					"attributes":{
						"POSITION":19,
						"NORMAL":20,
						"TEXCOORD_0":21
					},
					"indices":22,
					"material":0
				}
			]
		},
		{
			"name":"mantel",
			"primitives":[
				{
					"attributes":{
						"POSITION":23,
						"NORMAL":24,
						"TEXCOORD_0":25
					},
					"indices":26,
					"material":0
				}
			]
		},
		{
			"name":"mantel_props",
			"primitives":[
				{
					"attributes":{
						"POSITION":27,
						"NORMAL":28,
						"TEXCOORD_0":29
					},
					"indices":30,
					"material":0
				},
				{
					"attributes":{
						"POSITION":31,
						"NORMAL":32,
						"TEXCOORD_0":33
					},
					"indices":34,
					"material":3
				}
			]
		}
	],
	"textures":[
		{
			"sampler":0,
			"source":0
		}
	],
	"images":[
		{
			"mimeType":"image/png",
			"name":"hexagons_medieval",
			"uri":"hexagons_medieval.png"
		}
	],
	"accessors":[
		{
			"bufferView":0,
			"componentType":5126,
			"count":336,
			"max":[
				0.30000001192092896,
				0.5699999928474426,
				0.8600000143051147
			],
			"min":[
				-0.30000001192092896,
				0.20000000298023224,
				0.40000003576278687
			],
			"type":"VEC3"
		},
		{
			"bufferView":1,
			"componentType":5126,
			"count":336,
			"type":"VEC3"
		},
		{
			"bufferView":2,
			"componentType":5126,
			"count":336,
			"type":"VEC2"
		},
		{
			"bufferView":3,
			"componentType":5123,
			"count":528,
			"type":"SCALAR"
		},
		{
			"bufferView":4,
			"componentType":5126,
			"count":168,
			"max":[
				0.41999998688697815,
				0.2829306721687317,
				0.8600000143051147
			],
			"min":[
				-0.41999998688697815,
				0.20000000298023224,
				0.3799999952316284
			],
			"type":"VEC3"
		},
		{
			"bufferView":5,
			"componentType":5126,
			"count":168,
			"type":"VEC3"
		},
		{
			"bufferView":6,
			"componentType":5126,
			"count":168,
			"type":"VEC2"
		},
		{
			"bufferView":7,
			"componentType":5123,
			"count":252,
			"type":"SCALAR"
		},
		{
			"bufferView":8,
			"componentType":5126,
			"count":24,
			"max":[
				1,
				0.20000000298023224,
				1.4700000286102295
			],
			"min":[
				-1,
				0,
				0.8999999165534973
			],
			"type":"VEC3"
		},
		{
			"bufferView":9,
			"componentType":5126,
			"count":24,
			"type":"VEC3"
		},
		{
			"bufferView":10,
			"componentType":5123,
			"count":36,
			"type":"SCALAR"
		},
		{
			"bufferView":11,
			"componentType":5126,
			"count":24,
			"max":[
				1.25,
				4.400000095367432,
				0.949999988079071
			],
			"min":[
				-1.25,
				0,
				0
			],
			"type":"VEC3"
		},
		{
			"bufferView":12,
			"componentType":5126,
			"count":24,
			"type":"VEC3"
		},
		{
			"bufferView":13,
			"componentType":5126,
			"count":216,
			"max":[
				0.9082340598106384,
				0.14400000870227814,
				1.4819999933242798
			],
			"min":[
				-0.9045477509498596,
				0.04999999701976776,
				1.465999960899353
			],
			"type":"VEC3"
		},
		{
			"bufferView":14,
			"componentType":5126,
			"count":216,
			"type":"VEC3"
		},
		{
			"bufferView":15,
			"componentType":5126,
			"count":216,
			"type":"VEC2"
		},
		{
			"bufferView":16,
			"componentType":5123,
			"count":324,
			"type":"SCALAR"
		},
		{
			"bufferView":17,
			"componentType":5126,
			"count":24,
			"max":[
				-1.25,
				0.44999998807907104,
				0.7400000095367432
			],
			"min":[
				-2.0299999713897705,
				0,
				0
			],
			"type":"VEC3"
		},
		{
			"bufferView":18,
			"componentType":5126,
			"count":24,
			"type":"VEC3"
		},
		{
			"bufferView":19,
			"componentType":5126,
			"count":3810,
			"max":[
				1.3322863578796387,
				4.40000057220459,
				1.4700000286102295
			],
			"min":[
				-2.0783843994140625,
				0,
				0
			],
			"type":"VEC3"
		},
		{
			"bufferView":20,
			"componentType":5126,
			"count":3810,
			"type":"VEC3"
		},
		{
			"bufferView":21,
			"componentType":5126,
			"count":3810,
			"type":"VEC2"
		},
		{
			"bufferView":22,
			"componentType":5123,
			"count":5736,
			"type":"SCALAR"
		},
		{
			"bufferView":23,
			"componentType":5126,
			"count":72,
			"max":[
				1.399999976158142,
				2,
				1.0499999523162842
			],
			"min":[
				-1.399999976158142,
				1.6000001430511475,
				0.5
			],
			"type":"VEC3"
		},
		{
			"bufferView":24,
			"componentType":5126,
			"count":72,
			"type":"VEC3"
		},
		{
			"bufferView":25,
			"componentType":5126,
			"count":72,
			"type":"VEC2"
		},
		{
			"bufferView":26,
			"componentType":5123,
			"count":108,
			"type":"SCALAR"
		},
		{
			"bufferView":27,
			"componentType":5126,
			"count":564,
			"max":[
				1.284999966621399,
				2.200000047683716,
				0.933584988117218
			],
			"min":[
				-1.2649999856948853,
				2,
				0.7437083721160889
			],
			"type":"VEC3"
		},
		{
			"bufferView":28,
			"componentType":5126,
			"count":564,
			"type":"VEC3"
		},
		{
			"bufferView":29,
			"componentType":5126,
			"count":564,
			"type":"VEC2"
		},
		{
			"bufferView":30,
			"componentType":5123,
			"count":924,
			"type":"SCALAR"
		},
		{
			"bufferView":31,
			"componentType":5126,
			"count":72,
			"max":[
				1.2341421842575073,
				2.2899999618530273,
				0.814142107963562
			],
			"min":[
				-1.214142084121704,
				2.200000047683716,
				0.7858578562736511
			],
			"type":"VEC3"
		},
		{
			"bufferView":32,
			"componentType":5126,
			"count":72,
			"type":"VEC3"
		},
		{
			"bufferView":33,
			"componentType":5126,
			"count":72,
			"type":"VEC2"
		},
		{
			"bufferView":34,
			"componentType":5123,
			"count":108,
			"type":"SCALAR"
		}
	],
	"bufferViews":[
		{
			"buffer":0,
			"byteLength":4032,
			"byteOffset":0,
			"target":34962
		},
		{
			"buffer":0,
			"byteLength":4032,
			"byteOffset":4032,
			"target":34962
		},
		{
			"buffer":0,
			"byteLength":2688,
			"byteOffset":8064,
			"target":34962
		},
		{
			"buffer":0,
			"byteLength":1056,
			"byteOffset":10752,
			"target":34963
		},
		{
			"buffer":0,
			"byteLength":2016,
			"byteOffset":11808,
			"target":34962
		},
		{
			"buffer":0,
			"byteLength":2016,
			"byteOffset":13824,
			"target":34962
		},
		{
			"buffer":0,
			"byteLength":1344,
			"byteOffset":15840,
			"target":34962
		},
		{
			"buffer":0,
			"byteLength":504,
			"byteOffset":17184,
			"target":34963
		},
		{
			"buffer":0,
			"byteLength":288,
			"byteOffset":17688,
			"target":34962
		},
		{
			"buffer":0,
			"byteLength":288,
			"byteOffset":17976,
			"target":34962
		},
		{
			"buffer":0,
			"byteLength":72,
			"byteOffset":18264,
			"target":34963
		},
		{
			"buffer":0,
			"byteLength":288,
			"byteOffset":18336,
			"target":34962
		},
		{
			"buffer":0,
			"byteLength":288,
			"byteOffset":18624,
			"target":34962
		},
		{
			"buffer":0,
			"byteLength":2592,
			"byteOffset":18912,
			"target":34962
		},
		{
			"buffer":0,
			"byteLength":2592,
			"byteOffset":21504,
			"target":34962
		},
		{
			"buffer":0,
			"byteLength":1728,
			"byteOffset":24096,
			"target":34962
		},
		{
			"buffer":0,
			"byteLength":648,
			"byteOffset":25824,
			"target":34963
		},
		{
			"buffer":0,
			"byteLength":288,
			"byteOffset":26472,
			"target":34962
		},
		{
			"buffer":0,
			"byteLength":288,
			"byteOffset":26760,
			"target":34962
		},
		{
			"buffer":0,
			"byteLength":45720,
			"byteOffset":27048,
			"target":34962
		},
		{
			"buffer":0,
			"byteLength":45720,
			"byteOffset":72768,
			"target":34962
		},
		{
			"buffer":0,
			"byteLength":30480,
			"byteOffset":118488,
			"target":34962
		},
		{
			"buffer":0,
			"byteLength":11472,
			"byteOffset":148968,
			"target":34963
		},
		{
			"buffer":0,
			"byteLength":864,
			"byteOffset":160440,
			"target":34962
		},
		{
			"buffer":0,
			"byteLength":864,
			"byteOffset":161304,
			"target":34962
		},
		{
			"buffer":0,
			"byteLength":576,
			"byteOffset":162168,
			"target":34962
		},
		{
			"buffer":0,
			"byteLength":216,
			"byteOffset":162744,
			"target":34963
		},
		{
			"buffer":0,
			"byteLength":6768,
			"byteOffset":162960,
			"target":34962
		},
		{
			"buffer":0,
			"byteLength":6768,
			"byteOffset":169728,
			"target":34962
		},
		{
			"buffer":0,
			"byteLength":4512,
			"byteOffset":176496,
			"target":34962
		},
		{
			"buffer":0,
			"byteLength":1848,
			"byteOffset":181008,
			"target":34963
		},
		{
			"buffer":0,
			"byteLength":864,
			"byteOffset":182856,
			"target":34962
		},
		{
			"buffer":0,
			"byteLength":864,
			"byteOffset":183720,
			"target":34962
		},
		{
			"buffer":0,
			"byteLength":576,
			"byteOffset":184584,
			"target":34962
		},
		{
			"buffer":0,
			"byteLength":216,
			"byteOffset":185160,
			"target":34963
		}
	],
	"samplers":[
		{
			"magFilter":9728,
			"minFilter":9984
		}
	],
	"buffers":[
		{
			"byteLength":185376,
			"uri":"b1_hearth.bin"
		}
	]
}
