{
	"asset":{
		"generator":"Khronos glTF Blender I/O v4.5.47",
		"version":"2.0"
	},
	"extensionsUsed":[
		"KHR_materials_emissive_strength"
	],
	"scene":0,
	"scenes":[
		{
			"name":"Scene",
			"nodes":[
				11
			]
		}
	],
	"nodes":[
		{
			"mesh":0,
			"name":"bar_col-colonly"
		},
		{
			"mesh":1,
			"name":"bar_flap"
		},
		{
			"mesh":2,
			"name":"bar_ring"
		},
		{
			"mesh":3,
			"name":"bar_runes"
		},
		{
			"name":"flap_point",
			"rotation":[
				0,
				-1,
				0,
				4.371138828673793e-08
			],
			"translation":[
				0,
				0,
				-2.700000047683716
			]
		},
		{
			"mesh":4,
			"name":"foot_rail"
		},
		{
			"name":"serve_point_01",
			"translation":[
				0,
				0,
				1.7999999523162842
			]
		},
		{
			"name":"serve_point_02",
			"rotation":[
				0,
				0.5,
				0,
				0.8660253882408142
			],
			"translation":[
				1.5588457584381104,
				0,
				0.8999999761581421
			]
		},
		{
			"name":"serve_point_03",
			"rotation":[
				0,
				0.8660253882408142,
				0,
				0.4999999701976776
			],
			"translation":[
				1.5588457584381104,
				0,
				-0.8999999761581421
			]
		},
		{
			"name":"serve_point_04",
			"rotation":[
				0,
				-0.8660253882408142,
				0,
				0.5
			],
			"translation":[
				-1.5588457584381104,
				0,
				-0.8999999761581421
			]
		},
		{
			"name":"serve_point_05",
			"rotation":[
				0,
				-0.5,
				0,
				0.8660253882408142
			],
			"translation":[
				-1.5588457584381104,
				0,
				0.8999999761581421
			]
		},
		{
			"children":[
				0,
				1,
				2,
				3,
				4,
				5,
				6,
				7,
				8,
				9,
				10
			],
			"name":"b2_round_bar"
		}
	],
	"materials":[
		{
			"doubleSided":true,
			"name":"kaykit_atlas_mat",
			"pbrMetallicRoughness":{
				"baseColorTexture":{
					"index":0
				},
				"metallicFactor":0
			}
		},
		{
			"doubleSided":true,
			"emissiveFactor":[
				0.28132117086329517,
				1,
				0.8929384518922642
			],
			"extensions":{
				"KHR_materials_emissive_strength":{
					"emissiveStrength":1.2292000084400172
				}
			},
			"name":"emissive_prior_teal_mat",
			"pbrMetallicRoughness":{
				"baseColorFactor":[
					0.03999999910593033,
					0.1599999964237213,
					0.14000000059604645,
					1
				],
				"metallicFactor":0,
				"roughnessFactor":0
			}
		}
	],
	"meshes":[
		{
			"name":"bar_col-colonly",
			"primitives":[
				{
					"attributes":{
						"POSITION":0,
						"NORMAL":1
					},
					"indices":2
				}
			]
		},
		{
			"name":"bar_flap",
			"primitives":[
				{
					"attributes":{
						"POSITION":3,
						"NORMAL":4,
						"TEXCOORD_0":5
					},
					"indices":6,
					"material":0
				}
			]
		},
		{
			"name":"bar_ring",
			"primitives":[
				{
					"attributes":{
						"POSITION":7,
						"NORMAL":8,
						"TEXCOORD_0":9
					},
					"indices":10,
					"material":0
				}
			]
		},
		{
			"name":"bar_runes",
			"primitives":[
				{
					"attributes":{
						"POSITION":11,
						"NORMAL":12,
						"TEXCOORD_0":13
					},
					"indices":14,
					"material":1
				}
			]
		},
		{
			"name":"foot_rail",
			"primitives":[
				{
					"attributes":{
						"POSITION":15,
						"NORMAL":16,
						"TEXCOORD_0":17
					},
					"indices":18,
					"material":0
				}
			]
		}
	],
	"textures":[
		{
			"sampler":0,
			"source":0
		}
	],
	"images":[
		{
			"mimeType":"image/png",
			"name":"hexagons_medieval",
			"uri":"hexagons_medieval.png"
		}
	],
	"accessors":[
		{
			"bufferView":0,
			"componentType":5126,
			"count":648,
			"max":[
				3,
				1.0199999809265137,
				2.9835658073425293
			],
			"min":[
				-3,
				0,
				-2.8531696796417236
			],
			"type":"VEC3"
		},
		{
			"bufferView":1,
			"componentType":5126,
			"count":648,
			"type":"VEC3"
		},
		{
			"bufferView":2,
			"componentType":5123,
			"count":972,
			"type":"SCALAR"
		},
		{
			"bufferView":3,
			"componentType":5126,
			"count":192,
			"max":[
				1.1338090896606445,
				0.925000011920929,
				-2.843926429748535
			],
			"min":[
				-1.150835394859314,
				0.07499998807907104,
				-3.6407599449157715
			],
			"type":"VEC3"
		},
		{
			"bufferView":4,
			"componentType":5126,
			"count":192,
			"type":"VEC3"
		},
		{
			"bufferView":5,
			"componentType":5126,
			"count":192,
			"type":"VEC2"
		},
		{
			"bufferView":6,
			"componentType":5123,
			"count":288,
			"type":"SCALAR"
		},
		{
			"bufferView":7,
			"componentType":5126,
			"count":3312,
			"max":[
				3.0999999046325684,
				1.1200000047683716,
				3.0830178260803223
			],
			"min":[
				-3.0999999046325684,
				0,
				-2.948275327682495
			],
			"type":"VEC3"
		},
		{
			"bufferView":8,
			"componentType":5126,
			"count":3312,
			"type":"VEC3"
		},
		{
			"bufferView":9,
			"componentType":5126,
			"count":3312,
			"type":"VEC2"
		},
		{
			"bufferView":10,
			"componentType":5123,
			"count":4968,
			"type":"SCALAR"
		},
		{
			"bufferView":11,
			"componentType":5126,
			"count":2592,
			"max":[
				3.0200371742248535,
				0.7260000109672546,
				3.0201985836029053
			],
			"min":[
				-3.0191261768341064,
				0.5056115984916687,
				-2.843571424484253
			],
			"type":"VEC3"
		},
		{
			"bufferView":12,
			"componentType":5126,
			"count":2592,
			"type":"VEC3"
		},
		{
			"bufferView":13,
			"componentType":5126,
			"count":2592,
			"type":"VEC2"
		},
		{
			"bufferView":14,
			"componentType":5123,
			"count":3888,
			"type":"SCALAR"
		},
		{
			"bufferView":15,
			"componentType":5126,
			"count":984,
			"max":[
				3.2100000381469727,
				0.25,
				3.192415237426758
			],
			"min":[
				-3.2100000381469727,
				0.20000000298023224,
				-3.052891492843628
			],
			"type":"VEC3"
		},
		{
			"bufferView":16,
			"componentType":5126,
			"count":984,
			"type":"VEC3"
		},
		{
			"bufferView":17,
			"componentType":5126,
			"count":984,
			"type":"VEC2"
		},
		{
			"bufferView":18,
			"componentType":5123,
			"count":1476,
			"type":"SCALAR"
		}
	],
	"bufferViews":[
		{
			"buffer":0,
			"byteLength":7776,
			"byteOffset":0,
			"target":34962
		},
		{
			"buffer":0,
			"byteLength":7776,
			"byteOffset":7776,
			"target":34962
		},
		{
			"buffer":0,
			"byteLength":1944,
			"byteOffset":15552,
			"target":34963
		},
		{
			"buffer":0,
			"byteLength":2304,
			"byteOffset":17496,
			"target":34962
		},
		{
			"buffer":0,
			"byteLength":2304,
			"byteOffset":19800,
			"target":34962
		},
		{
			"buffer":0,
			"byteLength":1536,
			"byteOffset":22104,
			"target":34962
		},
		{
			"buffer":0,
			"byteLength":576,
			"byteOffset":23640,
			"target":34963
		},
		{
			"buffer":0,
			"byteLength":39744,
			"byteOffset":24216,
			"target":34962
		},
		{
			"buffer":0,
			"byteLength":39744,
			"byteOffset":63960,
			"target":34962
		},
		{
			"buffer":0,
			"byteLength":26496,
			"byteOffset":103704,
			"target":34962
		},
		{
			"buffer":0,
			"byteLength":9936,
			"byteOffset":130200,
			"target":34963
		},
		{
			"buffer":0,
			"byteLength":31104,
			"byteOffset":140136,
			"target":34962
		},
		{
			"buffer":0,
			"byteLength":31104,
			"byteOffset":171240,
			"target":34962
		},
		{
			"buffer":0,
			"byteLength":20736,
			"byteOffset":202344,
			"target":34962
		},
		{
			"buffer":0,
			"byteLength":7776,
			"byteOffset":223080,
			"target":34963
		},
		{
			"buffer":0,
			"byteLength":11808,
			"byteOffset":230856,
			"target":34962
		},
		{
			"buffer":0,
			"byteLength":11808,
			"byteOffset":242664,
			"target":34962
		},
		{
			"buffer":0,
			"byteLength":7872,
			"byteOffset":254472,
			"target":34962
		},
		{
			"buffer":0,
			"byteLength":2952,
			"byteOffset":262344,
			"target":34963
		}
	],
	"samplers":[
		{
			"magFilter":9728,
			"minFilter":9984
		}
	],
	"buffers":[
		{
			"byteLength":265296,
			"uri":"b2_round_bar.bin"
		}
	]
}
