{
	"asset":{
		"generator":"Khronos glTF Blender I/O v4.5.47",
		"version":"2.0"
	},
	"extensionsUsed":[
		"KHR_materials_emissive_strength"
	],
	"scene":0,
	"scenes":[
		{
			"name":"Scene",
			"nodes":[
				8
			]
		}
	],
	"nodes":[
		{
			"name":"candle_point",
			"translation":[
				0.7599999904632568,
				1.149999976158142,
				-0.2199999988079071
			]
		},
		{
			"name":"chronicle_point",
			"translation":[
				0.23999999463558197,
				0.8500000238418579,
				0.2199999988079071
			]
		},
		{
			"mesh":0,
			"name":"desk"
		},
		{
			"mesh":1,
			"name":"desk_col-colonly"
		},
		{
			"mesh":2,
			"name":"desk_dressing"
		},
		{
			"mesh":3,
			"name":"desk_stool"
		},
		{
			"name":"interact_point",
			"translation":[
				0,
				0,
				1.2000000476837158
			]
		},
		{
			"name":"work_point",
			"translation":[
				0,
				0.4399999976158142,
				-0.7799999713897705
			]
		},
		{
			"children":[
				0,
				1,
				2,
				3,
				4,
				5,
				6,
				7
			],
			"name":"b3_guild_desk"
		}
	],
	"materials":[
		{
			"doubleSided":true,
			"name":"kaykit_atlas_mat",
			"pbrMetallicRoughness":{
				"baseColorTexture":{
					"index":0
				},
				"metallicFactor":0
			}
		},
		{
			"doubleSided":true,
			"emissiveFactor":[
				1,
				0.7608000040054321,
				0.4000000059604645
			],
			"extensions":{
				"KHR_materials_emissive_strength":{
					"emissiveStrength":1.2000000476837158
				}
			},
			"name":"emissive_candle_mat",
			"pbrMetallicRoughness":{
				"baseColorFactor":[
					0.20000000298023224,
					0.10999999940395355,
					0.03999999910593033,
					1
				],
				"metallicFactor":0,
				"roughnessFactor":0
			}
		}
	],
	"meshes":[
		{
			"name":"desk",
			"primitives":[
				{
					"attributes":{
						"POSITION":0,
						"NORMAL":1,
						"TEXCOORD_0":2
					},
					"indices":3,
					"material":0
				}
			]
		},
		{
			"name":"desk_col-colonly",
			"primitives":[
				{
					"attributes":{
						"POSITION":4,
						"NORMAL":5
					},
					"indices":6
				}
			]
		},
		{
			"name":"desk_dressing",
			"primitives":[
				{
					"attributes":{
						"POSITION":7,
						"NORMAL":8,
						"TEXCOORD_0":9
					},
					"indices":10,
					"material":0
				},
				{
					"attributes":{
						"POSITION":11,
						"NORMAL":12,
						"TEXCOORD_0":13
					},
					"indices":14,
					"material":1
				}
			]
		},
		{
			"name":"desk_stool",
			"primitives":[
				{
					"attributes":{
						"POSITION":15,
						"NORMAL":16,
						"TEXCOORD_0":17
					},
					"indices":18,
					"material":0
				}
			]
		}
	],
	"textures":[
		{
			"sampler":0,
			"source":0
		}
	],
	"images":[
		{
			"mimeType":"image/png",
			"name":"hexagons_medieval",
			"uri":"hexagons_medieval.png"
		}
	],
	"accessors":[
		{
			"bufferView":0,
			"componentType":5126,
			"count":324,
			"max":[
				1.0299999713897705,
				0.8500000238418579,
				0.47600001096725464
			],
			"min":[
				-1.0299999713897705,
				0,
				-0.47600001096725464
			],
			"type":"VEC3"
		},
		{
			"bufferView":1,
			"componentType":5126,
			"count":324,
			"type":"VEC3"
		},
		{
			"bufferView":2,
			"componentType":5126,
			"count":324,
			"type":"VEC2"
		},
		{
			"bufferView":3,
			"componentType":5123,
			"count":480,
			"type":"SCALAR"
		},
		{
			"bufferView":4,
			"componentType":5126,
			"count":72,
			"max":[
				1.0299999713897705,
				0.8500000238418579,
				0.47999998927116394
			],
			"min":[
				-1.0299999713897705,
				0,
				-0.47999998927116394
			],
			"type":"VEC3"
		},
		{
			"bufferView":5,
			"componentType":5126,
			"count":72,
			"type":"VEC3"
		},
		{
			"bufferView":6,
			"componentType":5123,
			"count":108,
			"type":"SCALAR"
		},
		{
			"bufferView":7,
			"componentType":5126,
			"count":420,
			"max":[
				0.824999988079071,
				1.1059021949768066,
				0.2908133864402771
			],
			"min":[
				-0.9523633718490601,
				0.8500000238418579,
				-0.2762916386127472
			],
			"type":"VEC3"
		},
		{
			"bufferView":8,
			"componentType":5126,
			"count":420,
			"type":"VEC3"
		},
		{
			"bufferView":9,
			"componentType":5126,
			"count":420,
			"type":"VEC2"
		},
		{
			"bufferView":10,
			"componentType":5123,
			"count":660,
			"type":"SCALAR"
		},
		{
			"bufferView":11,
			"componentType":5126,
			"count":36,
			"max":[
				0.7755563259124756,
				1.149999976158142,
				-0.20444364845752716
			],
			"min":[
				0.7444436550140381,
				1.0499999523162842,
				-0.23555634915828705
			],
			"type":"VEC3"
		},
		{
			"bufferView":12,
			"componentType":5126,
			"count":36,
			"type":"VEC3"
		},
		{
			"bufferView":13,
			"componentType":5126,
			"count":36,
			"type":"VEC2"
		},
		{
			"bufferView":14,
			"componentType":5123,
			"count":54,
			"type":"SCALAR"
		},
		{
			"bufferView":15,
			"componentType":5126,
			"count":114,
			"max":[
				0.20333003997802734,
				0.4399999976158142,
				-0.6049194931983948
			],
			"min":[
				-0.20333003997802734,
				-0.005588442087173462,
				-1.0017949342727661
			],
			"type":"VEC3"
		},
		{
			"bufferView":16,
			"componentType":5126,
			"count":114,
			"type":"VEC3"
		},
		{
			"bufferView":17,
			"componentType":5126,
			"count":114,
			"type":"VEC2"
		},
		{
			"bufferView":18,
			"componentType":5123,
			"count":180,
			"type":"SCALAR"
		}
	],
	"bufferViews":[
		{
			"buffer":0,
			"byteLength":3888,
			"byteOffset":0,
			"target":34962
		},
		{
			"buffer":0,
			"byteLength":3888,
			"byteOffset":3888,
			"target":34962
		},
		{
			"buffer":0,
			"byteLength":2592,
			"byteOffset":7776,
			"target":34962
		},
		{
			"buffer":0,
			"byteLength":960,
			"byteOffset":10368,
			"target":34963
		},
		{
			"buffer":0,
			"byteLength":864,
			"byteOffset":11328,
			"target":34962
		},
		{
			"buffer":0,
			"byteLength":864,
			"byteOffset":12192,
			"target":34962
		},
		{
			"buffer":0,
			"byteLength":216,
			"byteOffset":13056,
			"target":34963
		},
		{
			"buffer":0,
			"byteLength":5040,
			"byteOffset":13272,
			"target":34962
		},
		{
			"buffer":0,
			"byteLength":5040,
			"byteOffset":18312,
			"target":34962
		},
		{
			"buffer":0,
			"byteLength":3360,
			"byteOffset":23352,
			"target":34962
		},
		{
			"buffer":0,
			"byteLength":1320,
			"byteOffset":26712,
			"target":34963
		},
		{
			"buffer":0,
			"byteLength":432,
			"byteOffset":28032,
			"target":34962
		},
		{
			"buffer":0,
			"byteLength":432,
			"byteOffset":28464,
			"target":34962
		},
		{
			"buffer":0,
			"byteLength":288,
			"byteOffset":28896,
			"target":34962
		},
		{
			"buffer":0,
			"byteLength":108,
			"byteOffset":29184,
			"target":34963
		},
		{
			"buffer":0,
			"byteLength":1368,
			"byteOffset":29292,
			"target":34962
		},
		{
			"buffer":0,
			"byteLength":1368,
			"byteOffset":30660,
			"target":34962
		},
		{
			"buffer":0,
			"byteLength":912,
			"byteOffset":32028,
			"target":34962
		},
		{
			"buffer":0,
			"byteLength":360,
			"byteOffset":32940,
			"target":34963
		}
	],
	"samplers":[
		{
			"magFilter":9728,
			"minFilter":9984
		}
	],
	"buffers":[
		{
			"byteLength":33300,
			"uri":"b3_guild_desk.bin"
		}
	]
}
