{
	"asset":{
		"generator":"Khronos glTF Blender I/O v4.5.47",
		"version":"2.0"
	},
	"extensionsUsed":[
		"KHR_materials_emissive_strength"
	],
	"scene":0,
	"scenes":[
		{
			"name":"Scene",
			"nodes":[
				10
			]
		}
	],
	"nodes":[
		{
			"mesh":0,
			"name":"board_frame"
		},
		{
			"name":"interact_point",
			"translation":[
				0,
				0,
				1.2000000476837158
			]
		},
		{
			"mesh":1,
			"name":"notice_01"
		},
		{
			"mesh":2,
			"name":"notice_02"
		},
		{
			"mesh":3,
			"name":"notice_03"
		},
		{
			"mesh":4,
			"name":"notice_04"
		},
		{
			"mesh":5,
			"name":"notice_05"
		},
		{
			"mesh":6,
			"name":"notice_06"
		},
		{
			"mesh":7,
			"name":"notice_07"
		},
		{
			"mesh":8,
			"name":"notice_08"
		},
		{
			"children":[
				0,
				1,
				2,
				3,
				4,
				5,
				6,
				7,
				8,
				9
			],
			"name":"b4_mission_board"
		}
	],
	"materials":[
		{
			"doubleSided":true,
			"name":"kaykit_atlas_mat",
			"pbrMetallicRoughness":{
				"baseColorTexture":{
					"index":0
				},
				"metallicFactor":0
			}
		},
		{
			"doubleSided":true,
			"emissiveFactor":[
				1,
				0.7608000040054321,
				0.4000000059604645
			],
			"extensions":{
				"KHR_materials_emissive_strength":{
					"emissiveStrength":1.2000000476837158
				}
			},
			"name":"emissive_candle_mat",
			"pbrMetallicRoughness":{
				"baseColorFactor":[
					0.20000000298023224,
					0.10999999940395355,
					0.03999999910593033,
					1
				],
				"metallicFactor":0,
				"roughnessFactor":0
			}
		}
	],
	"meshes":[
		{
			"name":"board_frame",
			"primitives":[
				{
					"attributes":{
						"POSITION":0,
						"NORMAL":1,
						"TEXCOORD_0":2
					},
					"indices":3,
					"material":0
				},
				{
					"attributes":{
						"POSITION":4,
						"NORMAL":5,
						"TEXCOORD_0":6
					},
					"indices":7,
					"material":1
				}
			]
		},
		{
			"name":"notice_01",
			"primitives":[
				{
					"attributes":{
						"POSITION":8,
						"NORMAL":9,
						"TEXCOORD_0":10
					},
					"indices":11,
					"material":0
				}
			]
		},
		{
			"name":"notice_02",
			"primitives":[
				{
					"attributes":{
						"POSITION":12,
						"NORMAL":13,
						"TEXCOORD_0":14
					},
					"indices":15,
					"material":0
				}
			]
		},
		{
			"name":"notice_03",
			"primitives":[
				{
					"attributes":{
						"POSITION":16,
						"NORMAL":17,
						"TEXCOORD_0":18
					},
					"indices":11,
					"material":0
				}
			]
		},
		{
			"name":"notice_04",
			"primitives":[
				{
					"attributes":{
						"POSITION":19,
						"NORMAL":20,
						"TEXCOORD_0":21
					},
					"indices":15,
					"material":0
				}
			]
		},
		{
			"name":"notice_05",
			"primitives":[
				{
					"attributes":{
						"POSITION":22,
						"NORMAL":23,
						"TEXCOORD_0":24
					},
					"indices":25,
					"material":0
				}
			]
		},
		{
			"name":"notice_06",
			"primitives":[
				{
					"attributes":{
						"POSITION":26,
						"NORMAL":27,
						"TEXCOORD_0":28
					},
					"indices":29,
					"material":0
				}
			]
		},
		{
			"name":"notice_07",
			"primitives":[
				{
					"attributes":{
						"POSITION":30,
						"NORMAL":31,
						"TEXCOORD_0":32
					},
					"indices":15,
					"material":0
				}
			]
		},
		{
			"name":"notice_08",
			"primitives":[
				{
					"attributes":{
						"POSITION":33,
						"NORMAL":34,
						"TEXCOORD_0":35
					},
					"indices":29,
					"material":0
				}
			]
		}
	],
	"textures":[
		{
			"sampler":0,
			"source":0
		}
	],
	"images":[
		{
			"mimeType":"image/png",
			"name":"hexagons_medieval",
			"uri":"hexagons_medieval.png"
		}
	],
	"accessors":[
		{
			"bufferView":0,
			"componentType":5126,
			"count":840,
			"max":[
				1.75,
				3.3000001907348633,
				0.20000000298023224
			],
			"min":[
				-1.75,
				1.2999999523162842,
				0
			],
			"type":"VEC3"
		},
		{
			"bufferView":1,
			"componentType":5126,
			"count":840,
			"type":"VEC3"
		},
		{
			"bufferView":2,
			"componentType":5126,
			"count":840,
			"type":"VEC2"
		},
		{
			"bufferView":3,
			"componentType":5123,
			"count":1356,
			"type":"SCALAR"
		},
		{
			"bufferView":4,
			"componentType":5126,
			"count":72,
			"max":[
				1.695556402206421,
				2.569999933242798,
				0.13555635511875153
			],
			"min":[
				-1.695556402206421,
				2.4700000286102295,
				0.10444365441799164
			],
			"type":"VEC3"
		},
		{
			"bufferView":5,
			"componentType":5126,
			"count":72,
			"type":"VEC3"
		},
		{
			"bufferView":6,
			"componentType":5126,
			"count":72,
			"type":"VEC2"
		},
		{
			"bufferView":7,
			"componentType":5123,
			"count":108,
			"type":"SCALAR"
		},
		{
			"bufferView":8,
			"componentType":5126,
			"count":204,
			"max":[
				-0.29722508788108826,
				3.1046385765075684,
				0.1120000034570694
			],
			"min":[
				-1.2190386056900024,
				2.5458285808563232,
				0.06499999761581421
			],
			"type":"VEC3"
		},
		{
			"bufferView":9,
			"componentType":5126,
			"count":204,
			"type":"VEC3"
		},
		{
			"bufferView":10,
			"componentType":5126,
			"count":204,
			"type":"VEC2"
		},
		{
			"bufferView":11,
			"componentType":5123,
			"count":312,
			"type":"SCALAR"
		},
		{
			"bufferView":12,
			"componentType":5126,
			"count":144,
			"max":[
				-0.9371116757392883,
				2.5500006675720215,
				0.1120000034570694
			],
			"min":[
				-1.2628884315490723,
				2.1499991416931152,
				0.06499999761581421
			],
			"type":"VEC3"
		},
		{
			"bufferView":13,
			"componentType":5126,
			"count":144,
			"type":"VEC3"
		},
		{
			"bufferView":14,
			"componentType":5126,
			"count":144,
			"type":"VEC2"
		},
		{
			"bufferView":15,
			"componentType":5123,
			"count":216,
			"type":"SCALAR"
		},
		{
			"bufferView":16,
			"componentType":5126,
			"count":204,
			"max":[
				-0.19992229342460632,
				1.9975899457931519,
				0.1120000034570694
			],
			"min":[
				-1.1097382307052612,
				1.6024099588394165,
				0.06499999761581421
			],
			"type":"VEC3"
		},
		{
			"bufferView":17,
			"componentType":5126,
			"count":204,
			"type":"VEC3"
		},
		{
			"bufferView":18,
			"componentType":5126,
			"count":204,
			"type":"VEC2"
		},
		{
			"bufferView":19,
			"componentType":5126,
			"count":144,
			"max":[
				-0.9079629182815552,
				1.7068641185760498,
				0.1120000034570694
			],
			"min":[
				-1.2520371675491333,
				1.2931358814239502,
				0.06499999761581421
			],
			"type":"VEC3"
		},
		{
			"bufferView":20,
			"componentType":5126,
			"count":144,
			"type":"VEC3"
		},
		{
			"bufferView":21,
			"componentType":5126,
			"count":144,
			"type":"VEC2"
		},
		{
			"bufferView":22,
			"componentType":5126,
			"count":168,
			"max":[
				1.1859887838363647,
				3.1223504543304443,
				0.1120000034570694
			],
			"min":[
				0.34712034463882446,
				2.5958986282348633,
				0.06499999761581421
			],
			"type":"VEC3"
		},
		{
			"bufferView":23,
			"componentType":5126,
			"count":168,
			"type":"VEC3"
		},
		{
			"bufferView":24,
			"componentType":5126,
			"count":168,
			"type":"VEC2"
		},
		{
			"bufferView":25,
			"componentType":5123,
			"count":252,
			"type":"SCALAR"
		},
		{
			"bufferView":26,
			"componentType":5126,
			"count":180,
			"max":[
				1.265988826751709,
				2.6023504734039307,
				0.1120000034570694
			],
			"min":[
				0.9340112209320068,
				2.1976497173309326,
				0.06499999761581421
			],
			"type":"VEC3"
		},
		{
			"bufferView":27,
			"componentType":5126,
			"count":180,
			"type":"VEC3"
		},
		{
			"bufferView":28,
			"componentType":5126,
			"count":180,
			"type":"VEC2"
		},
		{
			"bufferView":29,
			"componentType":5123,
			"count":276,
			"type":"SCALAR"
		},
		{
			"bufferView":30,
			"componentType":5126,
			"count":144,
			"max":[
				1.119738221168518,
				2.0475900173187256,
				0.1120000034570694
			],
			"min":[
				0.7960733771324158,
				1.6524100303649902,
				0.06499999761581421
			],
			"type":"VEC3"
		},
		{
			"bufferView":31,
			"componentType":5126,
			"count":144,
			"type":"VEC3"
		},
		{
			"bufferView":32,
			"componentType":5126,
			"count":144,
			"type":"VEC2"
		},
		{
			"bufferView":33,
			"componentType":5126,
			"count":180,
			"max":[
				1.244983196258545,
				1.7290269136428833,
				0.1120000034570694
			],
			"min":[
				0.8950169682502747,
				1.310973048210144,
				0.06499999761581421
			],
			"type":"VEC3"
		},
		{
			"bufferView":34,
			"componentType":5126,
			"count":180,
			"type":"VEC3"
		},
		{
			"bufferView":35,
			"componentType":5126,
			"count":180,
			"type":"VEC2"
		}
	],
	"bufferViews":[
		{
			"buffer":0,
			"byteLength":10080,
			"byteOffset":0,
			"target":34962
		},
		{
			"buffer":0,
			"byteLength":10080,
			"byteOffset":10080,
			"target":34962
		},
		{
			"buffer":0,
			"byteLength":6720,
			"byteOffset":20160,
			"target":34962
		},
		{
			"buffer":0,
			"byteLength":2712,
			"byteOffset":26880,
			"target":34963
		},
		{
			"buffer":0,
			"byteLength":864,
			"byteOffset":29592,
			"target":34962
		},
		{
			"buffer":0,
			"byteLength":864,
			"byteOffset":30456,
			"target":34962
		},
		{
			"buffer":0,
			"byteLength":576,
			"byteOffset":31320,
			"target":34962
		},
		{
			"buffer":0,
			"byteLength":216,
			"byteOffset":31896,
			"target":34963
		},
		{
			"buffer":0,
			"byteLength":2448,
			"byteOffset":32112,
			"target":34962
		},
		{
			"buffer":0,
			"byteLength":2448,
			"byteOffset":34560,
			"target":34962
		},
		{
			"buffer":0,
			"byteLength":1632,
			"byteOffset":37008,
			"target":34962
		},
		{
			"buffer":0,
			"byteLength":624,
			"byteOffset":38640,
			"target":34963
		},
		{
			"buffer":0,
			"byteLength":1728,
			"byteOffset":39264,
			"target":34962
		},
		{
			"buffer":0,
			"byteLength":1728,
			"byteOffset":40992,
			"target":34962
		},
		{
			"buffer":0,
			"byteLength":1152,
			"byteOffset":42720,
			"target":34962
		},
		{
			"buffer":0,
			"byteLength":432,
			"byteOffset":43872,
			"target":34963
		},
		{
			"buffer":0,
			"byteLength":2448,
			"byteOffset":44304,
			"target":34962
		},
		{
			"buffer":0,
			"byteLength":2448,
			"byteOffset":46752,
			"target":34962
		},
		{
			"buffer":0,
			"byteLength":1632,
			"byteOffset":49200,
			"target":34962
		},
		{
			"buffer":0,
			"byteLength":1728,
			"byteOffset":50832,
			"target":34962
		},
		{
			"buffer":0,
			"byteLength":1728,
			"byteOffset":52560,
			"target":34962
		},
		{
			"buffer":0,
			"byteLength":1152,
			"byteOffset":54288,
			"target":34962
		},
		{
			"buffer":0,
			"byteLength":2016,
			"byteOffset":55440,
			"target":34962
		},
		{
			"buffer":0,
			"byteLength":2016,
			"byteOffset":57456,
			"target":34962
		},
		{
			"buffer":0,
			"byteLength":1344,
			"byteOffset":59472,
			"target":34962
		},
		{
			"buffer":0,
			"byteLength":504,
			"byteOffset":60816,
			"target":34963
		},
		{
			"buffer":0,
			"byteLength":2160,
			"byteOffset":61320,
			"target":34962
		},
		{
			"buffer":0,
			"byteLength":2160,
			"byteOffset":63480,
			"target":34962
		},
		{
			"buffer":0,
			"byteLength":1440,
			"byteOffset":65640,
			"target":34962
		},
		{
			"buffer":0,
			"byteLength":552,
			"byteOffset":67080,
			"target":34963
		},
		{
			"buffer":0,
			"byteLength":1728,
			"byteOffset":67632,
			"target":34962
		},
		{
			"buffer":0,
			"byteLength":1728,
			"byteOffset":69360,
			"target":34962
		},
		{
			"buffer":0,
			"byteLength":1152,
			"byteOffset":71088,
			"target":34962
		},
		{
			"buffer":0,
			"byteLength":2160,
			"byteOffset":72240,
			"target":34962
		},
		{
			"buffer":0,
			"byteLength":2160,
			"byteOffset":74400,
			"target":34962
		},
		{
			"buffer":0,
			"byteLength":1440,
			"byteOffset":76560,
			"target":34962
		}
	],
	"samplers":[
		{
			"magFilter":9728,
			"minFilter":9984
		}
	],
	"buffers":[
		{
			"byteLength":78000,
			"uri":"b4_mission_board.bin"
		}
	]
}
