{
	"asset":{
		"generator":"Khronos glTF Blender I/O v4.5.47",
		"version":"2.0"
	},
	"extensionsUsed":[
		"KHR_materials_emissive_strength"
	],
	"scene":0,
	"scenes":[
		{
			"name":"Scene",
			"nodes":[
				7
			]
		}
	],
	"nodes":[
		{
			"mesh":0,
			"name":"pillar_band_high"
		},
		{
			"mesh":1,
			"name":"pillar_band_low"
		},
		{
			"mesh":2,
			"name":"pillar_base"
		},
		{
			"mesh":3,
			"name":"pillar_capital"
		},
		{
			"mesh":4,
			"name":"pillar_foundation"
		},
		{
			"mesh":5,
			"name":"pillar_hourglass"
		},
		{
			"mesh":6,
			"name":"pillar_stub"
		},
		{
			"children":[
				0,
				1,
				2,
				3,
				4,
				5,
				6
			],
			"name":"b6_hourglass_pillar"
		}
	],
	"materials":[
		{
			"doubleSided":true,
			"name":"kaykit_atlas_mat",
			"pbrMetallicRoughness":{
				"baseColorTexture":{
					"index":0
				},
				"metallicFactor":0
			}
		},
		{
			"doubleSided":true,
			"emissiveFactor":[
				0.28132117086329517,
				1,
				0.8929384518922642
			],
			"extensions":{
				"KHR_materials_emissive_strength":{
					"emissiveStrength":1.2292000084400172
				}
			},
			"name":"emissive_prior_teal_mat",
			"pbrMetallicRoughness":{
				"baseColorFactor":[
					0.03999999910593033,
					0.1599999964237213,
					0.14000000059604645,
					1
				],
				"metallicFactor":0,
				"roughnessFactor":0
			}
		},
		{
			"doubleSided":true,
			"emissiveFactor":[
				0.1482000022411345,
				0.5268000335216527,
				0.47040000638961743
			],
			"name":"emissive_glass_mat",
			"pbrMetallicRoughness":{
				"baseColorFactor":[
					0.029999999329447746,
					0.10000000149011612,
					0.09000000357627869,
					1
				],
				"metallicFactor":0,
				"roughnessFactor":0
			}
		}
	],
	"meshes":[
		{
			"name":"pillar_band_high",
			"primitives":[
				{
					"attributes":{
						"POSITION":0,
						"NORMAL":1,
						"TEXCOORD_0":2
					},
					"indices":3,
					"material":0
				},
				{
					"attributes":{
						"POSITION":4,
						"NORMAL":5,
						"TEXCOORD_0":6
					},
					"indices":7,
					"material":1
				}
			]
		},
		{
			"name":"pillar_band_low",
			"primitives":[
				{
					"attributes":{
						"POSITION":8,
						"NORMAL":9,
						"TEXCOORD_0":10
					},
					"indices":11,
					"material":0
				},
				{
					"attributes":{
						"POSITION":12,
						"NORMAL":13,
						"TEXCOORD_0":14
					},
					"indices":15,
					"material":1
				}
			]
		},
		{
			"name":"pillar_base",
			"primitives":[
				{
					"attributes":{
						"POSITION":16,
						"NORMAL":17,
						"TEXCOORD_0":18
					},
					"indices":3,
					"material":0
				}
			]
		},
		{
			"name":"pillar_capital",
			"primitives":[
				{
					"attributes":{
						"POSITION":19,
						"NORMAL":20,
						"TEXCOORD_0":21
					},
					"indices":22,
					"material":0
				}
			]
		},
		{
			"name":"pillar_foundation",
			"primitives":[
				{
					"attributes":{
						"POSITION":23,
						"NORMAL":24,
						"TEXCOORD_0":25
					},
					"indices":26,
					"material":0
				}
			]
		},
		{
			"name":"pillar_hourglass",
			"primitives":[
				{
					"attributes":{
						"POSITION":27,
						"NORMAL":28,
						"TEXCOORD_0":29
					},
					"indices":30,
					"material":0
				},
				{
					"attributes":{
						"POSITION":31,
						"NORMAL":32,
						"TEXCOORD_0":33
					},
					"indices":34,
					"material":1
				},
				{
					"attributes":{
						"POSITION":35,
						"NORMAL":36,
						"TEXCOORD_0":37
					},
					"indices":38,
					"material":2
				}
			]
		},
		{
			"name":"pillar_stub",
			"primitives":[
				{
					"attributes":{
						"POSITION":39,
						"NORMAL":40,
						"TEXCOORD_0":41
					},
					"indices":42,
					"material":0
				}
			]
		}
	],
	"textures":[
		{
			"sampler":0,
			"source":0
		}
	],
	"images":[
		{
			"mimeType":"image/png",
			"name":"hexagons_medieval",
			"uri":"hexagons_medieval.png"
		}
	],
	"accessors":[
		{
			"bufferView":0,
			"componentType":5126,
			"count":96,
			"max":[
				0.4804173707962036,
				2.4000000953674316,
				0.4804173707962036
			],
			"min":[
				-0.4804173707962036,
				2,
				-0.4804173707962036
			],
			"type":"VEC3"
		},
		{
			"bufferView":1,
			"componentType":5126,
			"count":96,
			"type":"VEC3"
		},
		{
			"bufferView":2,
			"componentType":5126,
			"count":96,
			"type":"VEC2"
		},
		{
			"bufferView":3,
			"componentType":5123,
			"count":168,
			"type":"SCALAR"
		},
		{
			"bufferView":4,
			"componentType":5126,
			"count":2232,
			"max":[
				0.49841734766960144,
				2.3550000190734863,
				0.49841734766960144
			],
			"min":[
				-0.49841734766960144,
				2.0450000762939453,
				-0.49841734766960144
			],
			"type":"VEC3"
		},
		{
			"bufferView":5,
			"componentType":5126,
			"count":2232,
			"type":"VEC3"
		},
		{
			"bufferView":6,
			"componentType":5126,
			"count":2232,
			"type":"VEC2"
		},
		{
			"bufferView":7,
			"componentType":5123,
			"count":3348,
			"type":"SCALAR"
		},
		{
			"bufferView":8,
			"componentType":5126,
			"count":48,
			"max":[
				0.45270097255706787,
				1,
				0.45270097255706787
			],
			"min":[
				-0.45270097255706787,
				0.75,
				-0.45270097255706787
			],
			"type":"VEC3"
		},
		{
			"bufferView":9,
			"componentType":5126,
			"count":48,
			"type":"VEC3"
		},
		{
			"bufferView":10,
			"componentType":5126,
			"count":48,
			"type":"VEC2"
		},
		{
			"bufferView":11,
			"componentType":5123,
			"count":84,
			"type":"SCALAR"
		},
		{
			"bufferView":12,
			"componentType":5126,
			"count":1296,
			"max":[
				0.4707009494304657,
				0.9350000619888306,
				0.4707009494304657
			],
			"min":[
				-0.4707009494304657,
				0.824999988079071,
				-0.4707009494304657
			],
			"type":"VEC3"
		},
		{
			"bufferView":13,
			"componentType":5126,
			"count":1296,
			"type":"VEC3"
		},
		{
			"bufferView":14,
			"componentType":5126,
			"count":1296,
			"type":"VEC2"
		},
		{
			"bufferView":15,
			"componentType":5123,
			"count":1944,
			"type":"SCALAR"
		},
		{
			"bufferView":16,
			"componentType":5126,
			"count":96,
			"max":[
				0.43422338366508484,
				0.75,
				0.43422338366508484
			],
			"min":[
				-0.43422338366508484,
				0.14000000059604645,
				-0.43422338366508484
			],
			"type":"VEC3"
		},
		{
			"bufferView":17,
			"componentType":5126,
			"count":96,
			"type":"VEC3"
		},
		{
			"bufferView":18,
			"componentType":5126,
			"count":96,
			"type":"VEC2"
		},
		{
			"bufferView":19,
			"componentType":5126,
			"count":432,
			"max":[
				0.8352944850921631,
				3.7430813312530518,
				0.8157429695129395
			],
			"min":[
				-0.803478479385376,
				2.353562116622925,
				-0.7870444059371948
			],
			"type":"VEC3"
		},
		{
			"bufferView":20,
			"componentType":5126,
			"count":432,
			"type":"VEC3"
		},
		{
			"bufferView":21,
			"componentType":5126,
			"count":432,
			"type":"VEC2"
		},
		{
			"bufferView":22,
			"componentType":5123,
			"count":660,
			"type":"SCALAR"
		},
		{
			"bufferView":23,
			"componentType":5126,
			"count":192,
			"max":[
				0.7391036152839661,
				0.19667890667915344,
				0.7705588340759277
			],
			"min":[
				-0.7391036152839661,
				-0.8999999761581421,
				-0.770397961139679
			],
			"type":"VEC3"
		},
		{
			"bufferView":24,
			"componentType":5126,
			"count":192,
			"type":"VEC3"
		},
		{
			"bufferView":25,
			"componentType":5126,
			"count":192,
			"type":"VEC2"
		},
		{
			"bufferView":26,
			"componentType":5123,
			"count":300,
			"type":"SCALAR"
		},
		{
			"bufferView":27,
			"componentType":5126,
			"count":192,
			"max":[
				0.4065069854259491,
				2,
				0.4065069854259491
			],
			"min":[
				-0.4065069854259491,
				1,
				-0.4065069854259491
			],
			"type":"VEC3"
		},
		{
			"bufferView":28,
			"componentType":5126,
			"count":192,
			"type":"VEC3"
		},
		{
			"bufferView":29,
			"componentType":5126,
			"count":192,
			"type":"VEC2"
		},
		{
			"bufferView":30,
			"componentType":5123,
			"count":312,
			"type":"SCALAR"
		},
		{
			"bufferView":31,
			"componentType":5126,
			"count":80,
			"max":[
				0.2864026427268982,
				1.5800000429153442,
				0.2864026427268982
			],
			"min":[
				-0.2864026427268982,
				1.059999942779541,
				-0.2864026427268982
			],
			"type":"VEC3"
		},
		{
			"bufferView":32,
			"componentType":5126,
			"count":80,
			"type":"VEC3"
		},
		{
			"bufferView":33,
			"componentType":5126,
			"count":80,
			"type":"VEC2"
		},
		{
			"bufferView":34,
			"componentType":5123,
			"count":132,
			"type":"SCALAR"
		},
		{
			"bufferView":35,
			"componentType":5126,
			"count":80,
			"max":[
				0.2864026427268982,
				1.940000057220459,
				0.2864026427268982
			],
			"min":[
				-0.2864026427268982,
				1.2599999904632568,
				-0.2864026427268982
			],
			"type":"VEC3"
		},
		{
			"bufferView":36,
			"componentType":5126,
			"count":80,
			"type":"VEC3"
		},
		{
			"bufferView":37,
			"componentType":5126,
			"count":80,
			"type":"VEC2"
		},
		{
			"bufferView":38,
			"componentType":5123,
			"count":132,
			"type":"SCALAR"
		},
		{
			"bufferView":39,
			"componentType":5126,
			"count":120,
			"max":[
				0.42498457431793213,
				1.0062490701675415,
				0.42498457431793213
			],
			"min":[
				-0.42498457431793213,
				0.75,
				-0.42498457431793213
			],
			"type":"VEC3"
		},
		{
			"bufferView":40,
			"componentType":5126,
			"count":120,
			"type":"VEC3"
		},
		{
			"bufferView":41,
			"componentType":5126,
			"count":120,
			"type":"VEC2"
		},
		{
			"bufferView":42,
			"componentType":5123,
			"count":192,
			"type":"SCALAR"
		}
	],
	"bufferViews":[
		{
			"buffer":0,
			"byteLength":1152,
			"byteOffset":0,
			"target":34962
		},
		{
			"buffer":0,
			"byteLength":1152,
			"byteOffset":1152,
			"target":34962
		},
		{
			"buffer":0,
			"byteLength":768,
			"byteOffset":2304,
			"target":34962
		},
		{
			"buffer":0,
			"byteLength":336,
			"byteOffset":3072,
			"target":34963
		},
		{
			"buffer":0,
			"byteLength":26784,
			"byteOffset":3408,
			"target":34962
		},
		{
			"buffer":0,
			"byteLength":26784,
			"byteOffset":30192,
			"target":34962
		},
		{
			"buffer":0,
			"byteLength":17856,
			"byteOffset":56976,
			"target":34962
		},
		{
			"buffer":0,
			"byteLength":6696,
			"byteOffset":74832,
			"target":34963
		},
		{
			"buffer":0,
			"byteLength":576,
			"byteOffset":81528,
			"target":34962
		},
		{
			"buffer":0,
			"byteLength":576,
			"byteOffset":82104,
			"target":34962
		},
		{
			"buffer":0,
			"byteLength":384,
			"byteOffset":82680,
			"target":34962
		},
		{
			"buffer":0,
			"byteLength":168,
			"byteOffset":83064,
			"target":34963
		},
		{
			"buffer":0,
			"byteLength":15552,
			"byteOffset":83232,
			"target":34962
		},
		{
			"buffer":0,
			"byteLength":15552,
			"byteOffset":98784,
			"target":34962
		},
		{
			"buffer":0,
			"byteLength":10368,
			"byteOffset":114336,
			"target":34962
		},
		{
			"buffer":0,
			"byteLength":3888,
			"byteOffset":124704,
			"target":34963
		},
		{
			"buffer":0,
			"byteLength":1152,
			"byteOffset":128592,
			"target":34962
		},
		{
			"buffer":0,
			"byteLength":1152,
			"byteOffset":129744,
			"target":34962
		},
		{
			"buffer":0,
			"byteLength":768,
			"byteOffset":130896,
			"target":34962
		},
		{
			"buffer":0,
			"byteLength":5184,
			"byteOffset":131664,
			"target":34962
		},
		{
			"buffer":0,
			"byteLength":5184,
			"byteOffset":136848,
			"target":34962
		},
		{
			"buffer":0,
			"byteLength":3456,
			"byteOffset":142032,
			"target":34962
		},
		{
			"buffer":0,
			"byteLength":1320,
			"byteOffset":145488,
			"target":34963
		},
		{
			"buffer":0,
			"byteLength":2304,
			"byteOffset":146808,
			"target":34962
		},
		{
			"buffer":0,
			"byteLength":2304,
			"byteOffset":149112,
			"target":34962
		},
		{
			"buffer":0,
			"byteLength":1536,
			"byteOffset":151416,
			"target":34962
		},
		{
			"buffer":0,
			"byteLength":600,
			"byteOffset":152952,
			"target":34963
		},
		{
			"buffer":0,
			"byteLength":2304,
			"byteOffset":153552,
			"target":34962
		},
		{
			"buffer":0,
			"byteLength":2304,
			"byteOffset":155856,
			"target":34962
		},
		{
			"buffer":0,
			"byteLength":1536,
			"byteOffset":158160,
			"target":34962
		},
		{
			"buffer":0,
			"byteLength":624,
			"byteOffset":159696,
			"target":34963
		},
		{
			"buffer":0,
			"byteLength":960,
			"byteOffset":160320,
			"target":34962
		},
		{
			"buffer":0,
			"byteLength":960,
			"byteOffset":161280,
			"target":34962
		},
		{
			"buffer":0,
			"byteLength":640,
			"byteOffset":162240,
			"target":34962
		},
		{
			"buffer":0,
			"byteLength":264,
			"byteOffset":162880,
			"target":34963
		},
		{
			"buffer":0,
			"byteLength":960,
			"byteOffset":163144,
			"target":34962
		},
		{
			"buffer":0,
			"byteLength":960,
			"byteOffset":164104,
			"target":34962
		},
		{
			"buffer":0,
			"byteLength":640,
			"byteOffset":165064,
			"target":34962
		},
		{
			"buffer":0,
			"byteLength":264,
			"byteOffset":165704,
			"target":34963
		},
		{
			"buffer":0,
			"byteLength":1440,
			"byteOffset":165968,
			"target":34962
		},
		{
			"buffer":0,
			"byteLength":1440,
			"byteOffset":167408,
			"target":34962
		},
		{
			"buffer":0,
			"byteLength":960,
			"byteOffset":168848,
			"target":34962
		},
		{
			"buffer":0,
			"byteLength":384,
			"byteOffset":169808,
			"target":34963
		}
	],
	"samplers":[
		{
			"magFilter":9728,
			"minFilter":9984
		}
	],
	"buffers":[
		{
			"byteLength":170192,
			"uri":"b6_hourglass_pillar.bin"
		}
	]
}
