{
	"asset":{
		"generator":"Khronos glTF Blender I/O v4.5.47",
		"version":"2.0"
	},
	"extensionsUsed":[
		"KHR_materials_emissive_strength"
	],
	"scene":0,
	"scenes":[
		{
			"name":"Scene",
			"nodes":[
				13
			]
		}
	],
	"nodes":[
		{
			"mesh":0,
			"name":"arch_broken"
		},
		{
			"mesh":1,
			"name":"arch_fallen_block"
		},
		{
			"mesh":2,
			"name":"col_back"
		},
		{
			"mesh":3,
			"name":"col_fallen"
		},
		{
			"mesh":4,
			"name":"col_fallen_base"
		},
		{
			"mesh":5,
			"name":"col_left"
		},
		{
			"mesh":6,
			"name":"col_right"
		},
		{
			"mesh":7,
			"name":"col_short"
		},
		{
			"mesh":8,
			"name":"dais"
		},
		{
			"mesh":9,
			"name":"moss_tufts"
		},
		{
			"mesh":10,
			"name":"rubble"
		},
		{
			"mesh":11,
			"name":"tree_canopy"
		},
		{
			"mesh":12,
			"name":"tree_trunk"
		},
		{
			"children":[
				0,
				1,
				2,
				3,
				4,
				5,
				6,
				7,
				8,
				9,
				10,
				11,
				12
			],
			"name":"D1_prior_ruins"
		}
	],
	"materials":[
		{
			"doubleSided":true,
			"name":"kaykit_atlas_mat",
			"pbrMetallicRoughness":{
				"baseColorTexture":{
					"index":0
				},
				"metallicFactor":0
			}
		},
		{
			"doubleSided":true,
			"emissiveFactor":[
				0.0666840462594697,
				1,
				0.774855393178545
			],
			"extensions":{
				"KHR_materials_emissive_strength":{
					"emissiveStrength":1.490808367729187
				}
			},
			"name":"emissive_prior_teal",
			"pbrMetallicRoughness":{
				"baseColorFactor":[
					0.04970656707882881,
					0.7454041838645935,
					0.577580451965332,
					1
				],
				"metallicFactor":0,
				"roughnessFactor":0
			}
		}
	],
	"meshes":[
		{
			"name":"arch_broken.001",
			"primitives":[
				{
					"attributes":{
						"POSITION":0,
						"NORMAL":1,
						"TEXCOORD_0":2
					},
					"indices":3,
					"material":0
				}
			]
		},
		{
			"name":"arch_fallen_block",
			"primitives":[
				{
					"attributes":{
						"POSITION":4,
						"NORMAL":5,
						"TEXCOORD_0":6
					},
					"indices":7,
					"material":0
				}
			]
		},
		{
			"name":"col_back.001",
			"primitives":[
				{
					"attributes":{
						"POSITION":8,
						"NORMAL":9,
						"TEXCOORD_0":10
					},
					"indices":11,
					"material":0
				},
				{
					"attributes":{
						"POSITION":12,
						"NORMAL":13,
						"TEXCOORD_0":14
					},
					"indices":15,
					"material":1
				}
			]
		},
		{
			"name":"col_fallen.001",
			"primitives":[
				{
					"attributes":{
						"POSITION":16,
						"NORMAL":17,
						"TEXCOORD_0":18
					},
					"indices":19,
					"material":0
				},
				{
					"attributes":{
						"POSITION":20,
						"NORMAL":21,
						"TEXCOORD_0":22
					},
					"indices":23,
					"material":1
				}
			]
		},
		{
			"name":"col_fallen_base",
			"primitives":[
				{
					"attributes":{
						"POSITION":24,
						"NORMAL":25,
						"TEXCOORD_0":26
					},
					"indices":27,
					"material":0
				}
			]
		},
		{
			"name":"col_left.001",
			"primitives":[
				{
					"attributes":{
						"POSITION":28,
						"NORMAL":29,
						"TEXCOORD_0":30
					},
					"indices":31,
					"material":0
				},
				{
					"attributes":{
						"POSITION":32,
						"NORMAL":33,
						"TEXCOORD_0":34
					},
					"indices":15,
					"material":1
				}
			]
		},
		{
			"name":"col_right.001",
			"primitives":[
				{
					"attributes":{
						"POSITION":35,
						"NORMAL":36,
						"TEXCOORD_0":37
					},
					"indices":38,
					"material":0
				},
				{
					"attributes":{
						"POSITION":39,
						"NORMAL":40,
						"TEXCOORD_0":41
					},
					"indices":15,
					"material":1
				}
			]
		},
		{
			"name":"col_short.001",
			"primitives":[
				{
					"attributes":{
						"POSITION":42,
						"NORMAL":43,
						"TEXCOORD_0":44
					},
					"indices":45,
					"material":0
				},
				{
					"attributes":{
						"POSITION":46,
						"NORMAL":47,
						"TEXCOORD_0":48
					},
					"indices":49,
					"material":1
				}
			]
		},
		{
			"name":"dais.001",
			"primitives":[
				{
					"attributes":{
						"POSITION":50,
						"NORMAL":51,
						"TEXCOORD_0":52
					},
					"indices":53,
					"material":0
				},
				{
					"attributes":{
						"POSITION":54,
						"NORMAL":55,
						"TEXCOORD_0":56
					},
					"indices":57,
					"material":1
				}
			]
		},
		{
			"name":"moss_tufts",
			"primitives":[
				{
					"attributes":{
						"POSITION":58,
						"NORMAL":59,
						"TEXCOORD_0":60
					},
					"indices":61,
					"material":0
				}
			]
		},
		{
			"name":"rubble",
			"primitives":[
				{
					"attributes":{
						"POSITION":62,
						"NORMAL":63,
						"TEXCOORD_0":64
					},
					"indices":65,
					"material":0
				}
			]
		},
		{
			"name":"tree_canopy.001",
			"primitives":[
				{
					"attributes":{
						"POSITION":66,
						"NORMAL":67,
						"TEXCOORD_0":68
					},
					"indices":69,
					"material":0
				}
			]
		},
		{
			"name":"tree_trunk.001",
			"primitives":[
				{
					"attributes":{
						"POSITION":70,
						"NORMAL":71,
						"TEXCOORD_0":72
					},
					"indices":73,
					"material":0
				}
			]
		}
	],
	"textures":[
		{
			"sampler":0,
			"source":0
		}
	],
	"images":[
		{
			"mimeType":"image/png",
			"name":"hexagons_medieval",
			"uri":"hexagons_medieval.png"
		}
	],
	"accessors":[
		{
			"bufferView":0,
			"componentType":5126,
			"count":264,
			"max":[
				0.789164125919342,
				0.32907724380493164,
				0.6181820631027222
			],
			"min":[
				0.12455329298973083,
				0,
				0.26540181040763855
			],
			"type":"VEC3"
		},
		{
			"bufferView":1,
			"componentType":5126,
			"count":264,
			"type":"VEC3"
		},
		{
			"bufferView":2,
			"componentType":5126,
			"count":264,
			"type":"VEC2"
		},
		{
			"bufferView":3,
			"componentType":5123,
			"count":420,
			"type":"SCALAR"
		},
		{
			"bufferView":4,
			"componentType":5126,
			"count":96,
			"max":[
				0.20662225782871246,
				0.13107939064502716,
				0.7278831005096436
			],
			"min":[
				0.00043578725308179855,
				-0.012247233651578426,
				0.48725301027297974
			],
			"type":"VEC3"
		},
		{
			"bufferView":5,
			"componentType":5126,
			"count":96,
			"type":"VEC3"
		},
		{
			"bufferView":6,
			"componentType":5126,
			"count":96,
			"type":"VEC2"
		},
		{
			"bufferView":7,
			"componentType":5123,
			"count":132,
			"type":"SCALAR"
		},
		{
			"bufferView":8,
			"componentType":5126,
			"count":392,
			"max":[
				0.05643489956855774,
				0.8694318532943726,
				-0.5450000166893005
			],
			"min":[
				-0.27643489837646484,
				0,
				-0.8950000405311584
			],
			"type":"VEC3"
		},
		{
			"bufferView":9,
			"componentType":5126,
			"count":392,
			"type":"VEC3"
		},
		{
			"bufferView":10,
			"componentType":5126,
			"count":392,
			"type":"VEC2"
		},
		{
			"bufferView":11,
			"componentType":5123,
			"count":636,
			"type":"SCALAR"
		},
		{
			"bufferView":12,
			"componentType":5126,
			"count":144,
			"max":[
				-0.049607694149017334,
				0.5649999976158142,
				-0.6040000319480896
			],
			"min":[
				-0.16789230704307556,
				0.2222708910703659,
				-0.6180000305175781
			],
			"type":"VEC3"
		},
		{
			"bufferView":13,
			"componentType":5126,
			"count":144,
			"type":"VEC3"
		},
		{
			"bufferView":14,
			"componentType":5126,
			"count":144,
			"type":"VEC2"
		},
		{
			"bufferView":15,
			"componentType":5123,
			"count":216,
			"type":"SCALAR"
		},
		{
			"bufferView":16,
			"componentType":5126,
			"count":112,
			"max":[
				-0.01150044146925211,
				0.20000001788139343,
				0.6584995985031128
			],
			"min":[
				-0.5884996056556702,
				-2.151355182888892e-08,
				0.08150043338537216
			],
			"type":"VEC3"
		},
		{
			"bufferView":17,
			"componentType":5126,
			"count":112,
			"type":"VEC3"
		},
		{
			"bufferView":18,
			"componentType":5126,
			"count":112,
			"type":"VEC2"
		},
		{
			"bufferView":19,
			"componentType":5123,
			"count":180,
			"type":"SCALAR"
		},
		{
			"bufferView":20,
			"componentType":5126,
			"count":96,
			"max":[
				-0.15716445446014404,
				0.2070000171661377,
				0.5128355622291565
			],
			"min":[
				-0.5071823000907898,
				-0.006999991834163666,
				0.30141064524650574
			],
			"type":"VEC3"
		},
		{
			"bufferView":21,
			"componentType":5126,
			"count":96,
			"type":"VEC3"
		},
		{
			"bufferView":22,
			"componentType":5126,
			"count":96,
			"type":"VEC2"
		},
		{
			"bufferView":23,
			"componentType":5123,
			"count":156,
			"type":"SCALAR"
		},
		{
			"bufferView":24,
			"componentType":5126,
			"count":96,
			"max":[
				-0.4826383590698242,
				0.178267240524292,
				0.16877467930316925
			],
			"min":[
				-0.740663468837738,
				-0.00919850543141365,
				-0.0748523399233818
			],
			"type":"VEC3"
		},
		{
			"bufferView":25,
			"componentType":5126,
			"count":96,
			"type":"VEC3"
		},
		{
			"bufferView":26,
			"componentType":5126,
			"count":96,
			"type":"VEC2"
		},
		{
			"bufferView":27,
			"componentType":5123,
			"count":132,
			"type":"SCALAR"
		},
		{
			"bufferView":28,
			"componentType":5126,
			"count":392,
			"max":[
				-0.3935651183128357,
				0.7406302690505981,
				-0.10500000417232513
			],
			"min":[
				-0.7264348864555359,
				0,
				-0.45499998331069946
			],
			"type":"VEC3"
		},
		{
			"bufferView":29,
			"componentType":5126,
			"count":392,
			"type":"VEC3"
		},
		{
			"bufferView":30,
			"componentType":5126,
			"count":392,
			"type":"VEC2"
		},
		{
			"bufferView":31,
			"componentType":5123,
			"count":636,
			"type":"SCALAR"
		},
		{
			"bufferView":32,
			"componentType":5126,
			"count":144,
			"max":[
				-0.4996076822280884,
				0.5649999976158142,
				-0.164000004529953
			],
			"min":[
				-0.617892324924469,
				0.2222708910703659,
				-0.17800000309944153
			],
			"type":"VEC3"
		},
		{
			"bufferView":33,
			"componentType":5126,
			"count":144,
			"type":"VEC3"
		},
		{
			"bufferView":34,
			"componentType":5126,
			"count":144,
			"type":"VEC2"
		},
		{
			"bufferView":35,
			"componentType":5126,
			"count":392,
			"max":[
				0.8064348697662354,
				0.6945345401763916,
				0.125
			],
			"min":[
				0.47356510162353516,
				0,
				-0.22499999403953552
			],
			"type":"VEC3"
		},
		{
			"bufferView":36,
			"componentType":5126,
			"count":392,
			"type":"VEC3"
		},
		{
			"bufferView":37,
			"componentType":5126,
			"count":392,
			"type":"VEC2"
		},
		{
			"bufferView":38,
			"componentType":5123,
			"count":636,
			"type":"SCALAR"
		},
		{
			"bufferView":39,
			"componentType":5126,
			"count":144,
			"max":[
				0.7003923058509827,
				0.5649999976158142,
				0.06599999964237213
			],
			"min":[
				0.582107663154602,
				0.2222708910703659,
				0.05199999734759331
			],
			"type":"VEC3"
		},
		{
			"bufferView":40,
			"componentType":5126,
			"count":144,
			"type":"VEC3"
		},
		{
			"bufferView":41,
			"componentType":5126,
			"count":144,
			"type":"VEC2"
		},
		{
			"bufferView":42,
			"componentType":5126,
			"count":406,
			"max":[
				0.5364348888397217,
				0.4399999976158142,
				-0.3349999785423279
			],
			"min":[
				0.2035651057958603,
				0,
				-0.6850000023841858
			],
			"type":"VEC3"
		},
		{
			"bufferView":43,
			"componentType":5126,
			"count":406,
			"type":"VEC3"
		},
		{
			"bufferView":44,
			"componentType":5126,
			"count":406,
			"type":"VEC2"
		},
		{
			"bufferView":45,
			"componentType":5123,
			"count":660,
			"type":"SCALAR"
		},
		{
			"bufferView":46,
			"componentType":5126,
			"count":24,
			"max":[
				0.42644116282463074,
				0.2777291238307953,
				-0.39399999380111694
			],
			"min":[
				0.38355886936187744,
				0.2222708910703659,
				-0.40799999237060547
			],
			"type":"VEC3"
		},
		{
			"bufferView":47,
			"componentType":5126,
			"count":24,
			"type":"VEC3"
		},
		{
			"bufferView":48,
			"componentType":5126,
			"count":24,
			"type":"VEC2"
		},
		{
			"bufferView":49,
			"componentType":5123,
			"count":36,
			"type":"SCALAR"
		},
		{
			"bufferView":50,
			"componentType":5126,
			"count":336,
			"max":[
				0.3199999928474426,
				0.09000000357627869,
				0.24000000953674316
			],
			"min":[
				-0.30000001192092896,
				0,
				-0.3799999952316284
			],
			"type":"VEC3"
		},
		{
			"bufferView":51,
			"componentType":5126,
			"count":336,
			"type":"VEC3"
		},
		{
			"bufferView":52,
			"componentType":5126,
			"count":336,
			"type":"VEC2"
		},
		{
			"bufferView":53,
			"componentType":5123,
			"count":552,
			"type":"SCALAR"
		},
		{
			"bufferView":54,
			"componentType":5126,
			"count":36,
			"max":[
				0.07999999821186066,
				0.10200000554323196,
				0.08999999612569809
			],
			"min":[
				-0.06000000238418579,
				0.09000000357627869,
				-0.22999998927116394
			],
			"type":"VEC3"
		},
		{
			"bufferView":55,
			"componentType":5126,
			"count":36,
			"type":"VEC3"
		},
		{
			"bufferView":56,
			"componentType":5126,
			"count":36,
			"type":"VEC2"
		},
		{
			"bufferView":57,
			"componentType":5123,
			"count":48,
			"type":"SCALAR"
		},
		{
			"bufferView":58,
			"componentType":5126,
			"count":360,
			"max":[
				0.7890787720680237,
				0.19699999690055847,
				0.5726858973503113
			],
			"min":[
				-0.729412317276001,
				-0.006999999284744263,
				-0.6833497881889343
			],
			"type":"VEC3"
		},
		{
			"bufferView":59,
			"componentType":5126,
			"count":360,
			"type":"VEC3"
		},
		{
			"bufferView":60,
			"componentType":5126,
			"count":360,
			"type":"VEC2"
		},
		{
			"bufferView":61,
			"componentType":5123,
			"count":360,
			"type":"SCALAR"
		},
		{
			"bufferView":62,
			"componentType":5126,
			"count":144,
			"max":[
				0.58355712890625,
				0.10040204226970673,
				0.9410696625709534
			],
			"min":[
				-0.4905346930027008,
				-0.006335489451885223,
				-0.6439894437789917
			],
			"type":"VEC3"
		},
		{
			"bufferView":63,
			"componentType":5126,
			"count":144,
			"type":"VEC3"
		},
		{
			"bufferView":64,
			"componentType":5126,
			"count":144,
			"type":"VEC2"
		},
		{
			"bufferView":65,
			"componentType":5123,
			"count":216,
			"type":"SCALAR"
		},
		{
			"bufferView":66,
			"componentType":5126,
			"count":360,
			"max":[
				-0.591613233089447,
				0.6800000071525574,
				0.1599999964237213
			],
			"min":[
				-0.9321692585945129,
				0.25999999046325684,
				-0.1599999964237213
			],
			"type":"VEC3"
		},
		{
			"bufferView":67,
			"componentType":5126,
			"count":360,
			"type":"VEC3"
		},
		{
			"bufferView":68,
			"componentType":5126,
			"count":360,
			"type":"VEC2"
		},
		{
			"bufferView":69,
			"componentType":5123,
			"count":360,
			"type":"SCALAR"
		},
		{
			"bufferView":70,
			"componentType":5126,
			"count":36,
			"max":[
				-0.7454047203063965,
				0.3816840946674347,
				0.07296696305274963
			],
			"min":[
				-0.8607293367385864,
				-0.005951799917966127,
				-0.03984778746962547
			],
			"type":"VEC3"
		},
		{
			"bufferView":71,
			"componentType":5126,
			"count":36,
			"type":"VEC3"
		},
		{
			"bufferView":72,
			"componentType":5126,
			"count":36,
			"type":"VEC2"
		},
		{
			"bufferView":73,
			"componentType":5123,
			"count":60,
			"type":"SCALAR"
		}
	],
	"bufferViews":[
		{
			"buffer":0,
			"byteLength":3168,
			"byteOffset":0,
			"target":34962
		},
		{
			"buffer":0,
			"byteLength":3168,
			"byteOffset":3168,
			"target":34962
		},
		{
			"buffer":0,
			"byteLength":2112,
			"byteOffset":6336,
			"target":34962
		},
		{
			"buffer":0,
			"byteLength":840,
			"byteOffset":8448,
			"target":34963
		},
		{
			"buffer":0,
			"byteLength":1152,
			"byteOffset":9288,
			"target":34962
		},
		{
			"buffer":0,
			"byteLength":1152,
			"byteOffset":10440,
			"target":34962
		},
		{
			"buffer":0,
			"byteLength":768,
			"byteOffset":11592,
			"target":34962
		},
		{
			"buffer":0,
			"byteLength":264,
			"byteOffset":12360,
			"target":34963
		},
		{
			"buffer":0,
			"byteLength":4704,
			"byteOffset":12624,
			"target":34962
		},
		{
			"buffer":0,
			"byteLength":4704,
			"byteOffset":17328,
			"target":34962
		},
		{
			"buffer":0,
			"byteLength":3136,
			"byteOffset":22032,
			"target":34962
		},
		{
			"buffer":0,
			"byteLength":1272,
			"byteOffset":25168,
			"target":34963
		},
		{
			"buffer":0,
			"byteLength":1728,
			"byteOffset":26440,
			"target":34962
		},
		{
			"buffer":0,
			"byteLength":1728,
			"byteOffset":28168,
			"target":34962
		},
		{
			"buffer":0,
			"byteLength":1152,
			"byteOffset":29896,
			"target":34962
		},
		{
			"buffer":0,
			"byteLength":432,
			"byteOffset":31048,
			"target":34963
		},
		{
			"buffer":0,
			"byteLength":1344,
			"byteOffset":31480,
			"target":34962
		},
		{
			"buffer":0,
			"byteLength":1344,
			"byteOffset":32824,
			"target":34962
		},
		{
			"buffer":0,
			"byteLength":896,
			"byteOffset":34168,
			"target":34962
		},
		{
			"buffer":0,
			"byteLength":360,
			"byteOffset":35064,
			"target":34963
		},
		{
			"buffer":0,
			"byteLength":1152,
			"byteOffset":35424,
			"target":34962
		},
		{
			"buffer":0,
			"byteLength":1152,
			"byteOffset":36576,
			"target":34962
		},
		{
			"buffer":0,
			"byteLength":768,
			"byteOffset":37728,
			"target":34962
		},
		{
			"buffer":0,
			"byteLength":312,
			"byteOffset":38496,
			"target":34963
		},
		{
			"buffer":0,
			"byteLength":1152,
			"byteOffset":38808,
			"target":34962
		},
		{
			"buffer":0,
			"byteLength":1152,
			"byteOffset":39960,
			"target":34962
		},
		{
			"buffer":0,
			"byteLength":768,
			"byteOffset":41112,
			"target":34962
		},
		{
			"buffer":0,
			"byteLength":264,
			"byteOffset":41880,
			"target":34963
		},
		{
			"buffer":0,
			"byteLength":4704,
			"byteOffset":42144,
			"target":34962
		},
		{
			"buffer":0,
			"byteLength":4704,
			"byteOffset":46848,
			"target":34962
		},
		{
			"buffer":0,
			"byteLength":3136,
			"byteOffset":51552,
			"target":34962
		},
		{
			"buffer":0,
			"byteLength":1272,
			"byteOffset":54688,
			"target":34963
		},
		{
			"buffer":0,
			"byteLength":1728,
			"byteOffset":55960,
			"target":34962
		},
		{
			"buffer":0,
			"byteLength":1728,
			"byteOffset":57688,
			"target":34962
		},
		{
			"buffer":0,
			"byteLength":1152,
			"byteOffset":59416,
			"target":34962
		},
		{
			"buffer":0,
			"byteLength":4704,
			"byteOffset":60568,
			"target":34962
		},
		{
			"buffer":0,
			"byteLength":4704,
			"byteOffset":65272,
			"target":34962
		},
		{
			"buffer":0,
			"byteLength":3136,
			"byteOffset":69976,
			"target":34962
		},
		{
			"buffer":0,
			"byteLength":1272,
			"byteOffset":73112,
			"target":34963
		},
		{
			"buffer":0,
			"byteLength":1728,
			"byteOffset":74384,
			"target":34962
		},
		{
			"buffer":0,
			"byteLength":1728,
			"byteOffset":76112,
			"target":34962
		},
		{
			"buffer":0,
			"byteLength":1152,
			"byteOffset":77840,
			"target":34962
		},
		{
			"buffer":0,
			"byteLength":4872,
			"byteOffset":78992,
			"target":34962
		},
		{
			"buffer":0,
			"byteLength":4872,
			"byteOffset":83864,
			"target":34962
		},
		{
			"buffer":0,
			"byteLength":3248,
			"byteOffset":88736,
			"target":34962
		},
		{
			"buffer":0,
			"byteLength":1320,
			"byteOffset":91984,
			"target":34963
		},
		{
			"buffer":0,
			"byteLength":288,
			"byteOffset":93304,
			"target":34962
		},
		{
			"buffer":0,
			"byteLength":288,
			"byteOffset":93592,
			"target":34962
		},
		{
			"buffer":0,
			"byteLength":192,
			"byteOffset":93880,
			"target":34962
		},
		{
			"buffer":0,
			"byteLength":72,
			"byteOffset":94072,
			"target":34963
		},
		{
			"buffer":0,
			"byteLength":4032,
			"byteOffset":94144,
			"target":34962
		},
		{
			"buffer":0,
			"byteLength":4032,
			"byteOffset":98176,
			"target":34962
		},
		{
			"buffer":0,
			"byteLength":2688,
			"byteOffset":102208,
			"target":34962
		},
		{
			"buffer":0,
			"byteLength":1104,
			"byteOffset":104896,
			"target":34963
		},
		{
			"buffer":0,
			"byteLength":432,
			"byteOffset":106000,
			"target":34962
		},
		{
			"buffer":0,
			"byteLength":432,
			"byteOffset":106432,
			"target":34962
		},
		{
			"buffer":0,
			"byteLength":288,
			"byteOffset":106864,
			"target":34962
		},
		{
			"buffer":0,
			"byteLength":96,
			"byteOffset":107152,
			"target":34963
		},
		{
			"buffer":0,
			"byteLength":4320,
			"byteOffset":107248,
			"target":34962
		},
		{
			"buffer":0,
			"byteLength":4320,
			"byteOffset":111568,
			"target":34962
		},
		{
			"buffer":0,
			"byteLength":2880,
			"byteOffset":115888,
			"target":34962
		},
		{
			"buffer":0,
			"byteLength":720,
			"byteOffset":118768,
			"target":34963
		},
		{
			"buffer":0,
			"byteLength":1728,
			"byteOffset":119488,
			"target":34962
		},
		{
			"buffer":0,
			"byteLength":1728,
			"byteOffset":121216,
			"target":34962
		},
		{
			"buffer":0,
			"byteLength":1152,
			"byteOffset":122944,
			"target":34962
		},
		{
			"buffer":0,
			"byteLength":432,
			"byteOffset":124096,
			"target":34963
		},
		{
			"buffer":0,
			"byteLength":4320,
			"byteOffset":124528,
			"target":34962
		},
		{
			"buffer":0,
			"byteLength":4320,
			"byteOffset":128848,
			"target":34962
		},
		{
			"buffer":0,
			"byteLength":2880,
			"byteOffset":133168,
			"target":34962
		},
		{
			"buffer":0,
			"byteLength":720,
			"byteOffset":136048,
			"target":34963
		},
		{
			"buffer":0,
			"byteLength":432,
			"byteOffset":136768,
			"target":34962
		},
		{
			"buffer":0,
			"byteLength":432,
			"byteOffset":137200,
			"target":34962
		},
		{
			"buffer":0,
			"byteLength":288,
			"byteOffset":137632,
			"target":34962
		},
		{
			"buffer":0,
			"byteLength":120,
			"byteOffset":137920,
			"target":34963
		}
	],
	"samplers":[
		{
			"magFilter":9728,
			"minFilter":9984
		}
	],
	"buffers":[
		{
			"byteLength":138040,
			"uri":"d1_prior_ruins.bin"
		}
	]
}
